<svg width="208" height="117" xmlns="http://www.w3.org/2000/svg" xmlns:xlink="http://www.w3.org/1999/xlink" overflow="hidden"><defs><clipPath id="clip0"><rect x="414" y="537" width="208" height="117"/></clipPath><linearGradient x1="610.418" y1="594.696" x2="489.252" y2="594.696" gradientUnits="userSpaceOnUse" spreadMethod="reflect" id="fill1"><stop offset="0" stop-color="#3041BC"/><stop offset="0.5" stop-color="#923280"/><stop offset="1" stop-color="#F32344"/></linearGradient></defs><g clip-path="url(#clip0)" transform="translate(-414 -537)"><path d="M433 596 483 547 533 596 483 645Z" stroke="#F32344" stroke-width="4" stroke-miterlimit="8" fill="none" fill-rule="evenodd"/><path d="M565.678 569.458 565.678 623.677 580.819 623.677C583.35 623.712 585.771 623.378 588.082 622.676 590.393 621.974 592.461 620.694 594.288 618.836 595.897 617.046 597.031 614.798 597.688 612.092 598.345 609.385 598.729 606.576 598.839 603.665 598.949 600.753 598.987 598.094 598.953 595.688 599.067 592.04 598.905 588.245 598.469 584.3 598.032 580.356 596.639 577.023 594.288 574.299 592.461 572.442 590.393 571.162 588.082 570.46 585.771 569.757 583.35 569.423 580.819 569.458ZM560.937 565.245 581.964 565.245C585.268 565.247 588.232 565.726 590.855 566.683 593.477 567.64 595.737 569.064 597.633 570.955 600.653 574.23 602.454 578.088 603.036 582.529 603.617 586.97 603.837 591.357 603.694 595.688 603.737 598.557 603.681 601.629 603.528 604.903 603.376 608.177 602.871 611.334 602.016 614.373 601.16 617.413 599.699 620.015 597.633 622.181 595.737 624.072 593.477 625.496 590.855 626.453 588.232 627.409 585.268 627.889 581.964 627.89L560.937 627.89ZM498.937 565.245 503.678 565.245 503.678 594.197 536.337 594.197 536.337 565.245 541.078 565.245 541.078 627.89 536.337 627.89 536.337 598.41 503.678 598.41 503.678 627.89 498.937 627.89Z" fill="url(#fill1)" fill-rule="evenodd"/><text fill="#000000" fill-opacity="0" font-family="Arial,Arial_MSFontService,sans-serif" font-size="62.645" x="498.937" y="620.06">HD</text></g></svg>