
<svg version="1.0" xmlns="http://www.w3.org/2000/svg"
 width="500.000000pt" height="500.000000pt" viewBox="0 0 500.000000 500.000000"
 preserveAspectRatio="xMidYMid meet">

<g transform="translate(0.000000,500.000000) scale(0.100000,-0.100000)"
fill="#000000" stroke="none">
<path d="M1670 3507 c0 -7 13 -23 30 -35 17 -13 33 -38 39 -59 15 -51 15
-1204 1 -1255 -6 -20 -24 -48 -40 -62 -17 -13 -30 -29 -30 -35 0 -7 56 -11
170 -11 180 0 202 7 141 42 -44 25 -51 66 -51 315 l0 221 128 4 c70 2 131 1
135 -3 5 -4 7 -226 4 -495 -4 -532 -6 -553 -58 -582 -61 -35 -39 -42 141 -42
114 0 170 4 170 11 0 6 -13 22 -30 35 -16 14 -34 42 -40 62 -6 22 -10 171 -10
361 l0 324 198 -6 c229 -6 283 -18 330 -71 17 -19 33 -44 37 -55 3 -12 13 -21
21 -21 12 0 14 28 14 160 0 174 -7 193 -45 123 -44 -83 -120 -103 -383 -103
l-172 0 0 173 0 172 58 30 c71 37 161 125 191 188 l24 49 121 -4 c99 -3 130
-8 173 -27 53 -24 124 -90 145 -136 6 -14 16 -24 22 -22 11 4 12 21 1 150 l-7
77 -222 0 -223 0 10 63 c6 43 6 82 -2 126 -36 196 -181 309 -436 340 -134 16
-555 15 -555 -2z m500 -39 c193 -46 310 -201 310 -409 l0 -79 -185 0 c-147 0
-185 -3 -185 -13 0 -8 11 -20 25 -27 34 -18 54 -80 57 -180 l3 -84 -40 -8
c-22 -4 -82 -7 -132 -7 l-93 -1 0 409 0 410 23 4 c31 7 163 -2 217 -15z m294
-550 c-14 -50 -33 -85 -63 -122 l-31 -39 0 92 0 91 51 0 c48 0 50 -1 43 -22z"/>
<path d="M2756 3229 c-31 -25 -33 -57 -6 -87 26 -27 64 -28 90 -2 26 26 25 64
-2 90 -28 25 -48 25 -82 -1z m85 -21 c22 -42 -22 -90 -66 -70 -33 15 -38 50
-10 77 26 27 60 24 76 -7z"/>
<path d="M2917 3243 c-11 -10 -8 -123 3 -123 6 0 10 11 10 25 0 32 7 31 32 -1
11 -14 23 -23 26 -20 3 3 -3 15 -13 26 -16 18 -16 20 -1 26 22 9 20 51 -3 64
-23 12 -45 13 -54 3z m61 -35 c-2 -15 -11 -24 -25 -26 -19 -3 -23 1 -23 22 0
21 5 26 26 26 21 0 25 -4 22 -22z"/>
<path d="M3053 3238 c11 -9 17 -32 20 -68 l3 -55 2 62 c2 49 5 62 20 66 9 3
-1 5 -22 6 -34 1 -37 -1 -23 -11z"/>
<path d="M2695 1805 c-30 -29 -31 -45 -4 -79 38 -48 109 -24 109 37 0 32 -32
67 -60 67 -12 0 -32 -11 -45 -25z m83 -8 c28 -22 0 -87 -39 -87 -46 0 -66 67
-28 94 21 14 42 12 67 -7z"/>
<path d="M2862 1768 l-2 -68 28 1 c22 1 23 2 5 6 -19 4 -23 12 -26 66 l-3 62
-2 -67z"/>
<path d="M3052 1810 c-27 -26 -28 -64 -2 -90 26 -26 64 -25 90 2 27 29 25 54
-5 83 -29 30 -54 32 -83 5z m87 -28 c12 -23 -3 -59 -28 -67 -24 -7 -56 8 -65
31 -23 60 63 94 93 36z"/>
<path d="M2960 1760 c0 -33 4 -60 10 -60 6 0 10 27 10 60 0 33 -4 60 -10 60
-6 0 -10 -27 -10 -60z"/>
</g>
</svg>
