<svg xmlns="http://www.w3.org/2000/svg" style="overflow: visible;" data-bbox="99.09849039173506 142.608223983371 313.80301921652995 226.78355203325802" viewBox="99.1 142.61 313.8 226.78"><g data-uid="o_f8fn92jkm_11"><path text="F" fill="#ffffff" space="preserve" text-anchor="middle" offset="0.5" font-scale="contain" font-size="48" font-family="Great Vibes" transform="matrix(3.1886649131774902, 0, 0, 3.686173677444458, 280.8014831542969, 346.3900451660156)" font-style="normal" font-weight="400" data-uid="o_f8fn92jkm_4" data-fl-textpath="" d="M 22.988-29.28L 22.988-29.28Q 13.298-34.08  7.388-34.08Q 1.488-34.08 -2.492-30.72L-2.492-30.72Q-6.292-27.5 -6.292-23.81L-6.292-23.81Q-6.292-21.89 -4.892-21.02L-4.892-21.02Q-3.022-19.97 -1.342-19.97L-1.342-19.97Q-0.722-19.97 -0.092-20.11L-0.092-20.11Q 2.108-20.64  3.648-21.89Q 5.188-23.14  5.188-23.9Q 5.188-24.67  5.638-24.96Q 6.098-25.25  6.098-24.77L 6.098-24.77Q 6.098-24.48  5.948-24.1L 5.948-24.1Q 4.948-20.69  1.248-19.44L 1.248-19.44Q-0.332-18.91 -2.012-18.91Q-3.692-18.91 -5.332-19.92L-5.332-19.92Q-8.402-21.65 -8.402-25.2L-8.402-25.2Q-8.402-29.47 -4.462-32.98Q-0.532-36.48  5.138-36.48L 5.138-36.48Q 7.918-36.48  10.748-35.66L 10.748-35.66Q 17.858-33.74  23.618-30.1L 23.618-30.1Q 25.108-31.73  26.688-31.73L 26.688-31.73Q 28.468-31.73  28.508-30.53L 28.508-30.53Q 28.558-30  28.178-30.05L 28.178-30.05Q 27.938-30.1  27.648-30.43L 27.648-30.43Q 27.268-30.58  26.928-30.58L 26.928-30.58Q 25.868-30.58  24.768-29.52L 24.768-29.52Q 28.318-27.74  33.118-26.5L 33.118-26.5Q 34.988-26.06  36.098-26.06Q 37.198-26.06  37.778-26.11L 37.778-26.11Q 39.888-26.35  40.508-27.7L 40.508-27.7Q 40.848-28.42  41.108-28.58Q 41.378-28.75  41.428-28.42L 41.428-28.42Q 41.428-28.27  41.428-28.03L 41.428-28.03Q 41.428-26.06  39.408-25.06L 39.408-25.06Q 38.158-24.43  37.058-24.43Q 35.948-24.43  34.658-24.65Q 33.358-24.86  31.298-25.54Q 29.228-26.21  27.938-26.78Q 26.638-27.36  25.388-27.98L 25.388-27.98L 24.048-28.66Q 21.548-25.82  18.718-18.91L 18.718-18.91Q 17.808-16.61  17.668-16.27L 17.668-16.27Q 20.448-15.89  22.798-15.89Q 25.148-15.89  26.518-15.96Q 27.888-16.03  27.938-15.65L 27.938-15.65Q 27.988-14.59  20.788-14.59L 20.788-14.59Q 18.478-14.59  17.088-14.78L 17.088-14.78Q 14.108-6.62  11.138-2.69L 11.138-2.69Q 9.888-1.06  8.018 0.74Q 6.148 2.54  4.028 3.65L 4.028 3.65Q-0.722 6.24 -6.572 6.24Q-12.432 6.24 -16.512 3.65L-16.512 3.65Q-22.702-0.19 -22.702-7.44L-22.702-7.44Q-22.702-9.89 -21.892-12.67L-21.892-12.67Q-21.312-14.5 -19.752-15.89Q-18.192-17.28 -17.132-17.59Q-16.082-17.9 -16.152-17.71Q-16.222-17.52 -17.812-16.42L-17.812-16.42Q-20.932-14.16 -21.502-10.85L-21.502-10.85Q-21.742-9.65 -21.742-8.06Q-21.742-6.48 -21.022-4.61L-21.022-4.61Q-19.052 0.48 -12.862 2.88L-12.862 2.88Q-9.932 3.98 -6.572 3.98Q-3.212 3.98  0.098 2.64Q 3.408 1.3  6.238-1.39L 6.238-1.39Q 11.758-6.62  15.358-14.93L 15.358-14.93L 12.288-14.98Q 6.668-14.98  4.898-12.38L 4.898-12.38Q 4.468-11.86  4.198-12.12Q 3.938-12.38  4.128-12.82L 4.128-12.82Q 5.188-15.12  7.108-16.13Q 9.028-17.14  10.918-17.14Q 12.818-17.14  16.028-16.7L 16.028-16.7Q 17.518-20.35  19.798-24.29Q 22.078-28.22  22.988-29.28Z"/><path text="P" fill="#ffffff" space="preserve" text-anchor="middle" offset="0.5" font-scale="contain" font-size="48" font-family="Great Vibes" transform="matrix(3.39755916595459, 0, 0, 3.39755916595459, 175.91729736328125, 274.8752136230469)" font-style="normal" font-weight="400" data-uid="o_f8fn92jkm_5" data-fl-textpath="" d="M 24.91-33.84L 24.91-33.84Q 30-30.82  30-26.54L 30-26.54Q 30-23.18  26.26-19.34L 26.26-19.34Q 24.1-17.09  21.14-15.46Q 18.19-13.82  15.31-13.1L 15.31-13.1Q 10.32-11.9  6.29-11.9L 6.29-11.9Q 5.42-11.9  4.56-11.95L 4.56-11.95Q 1.06-6.82 -2.64-3.22L-2.64-3.22Q-8.06 1.87 -14.59 1.87L-14.59 1.87Q-20.83 1.87-22.27-1.54L-22.27-1.54Q-22.61-2.35-22.61-3.43Q-22.61-4.51-21.5-5.76L-21.5-5.76Q-19.78-7.73 -16.66-7.73L-16.66-7.73Q-14.64-7.73 -12.43-7.01L-12.43-7.01Q-11.62-6.72 -11.86-6.38L-11.86-6.38Q-12.05-6.19 -13.1-6.58Q-14.16-6.96 -15.72-6.96Q-17.28-6.96 -18.46-5.78Q-19.63-4.61 -19.63-3.26L-19.63-3.26Q-19.63-2.74 -19.44-2.21L-19.44-2.21Q-18.67 0.38 -15.07 0.38L-15.07 0.38Q-9.7 0.38 -4.51-4.61L-4.51-4.61Q-0.82-8.21  3.79-17.57L 3.79-17.57Q 5.57-21.07  8.21-25.37Q 10.85-29.66  13.58-32.74L 13.58-32.74Q 13.92-33.07  14.45-33.6L 14.45-33.6Q 15.46-34.75  16.13-35.42L 16.13-35.42Q 12.67-35.9  8.74-35.9Q 4.8-35.9  1.3-35.26Q-2.21-34.61 -4.8-33.72Q-7.39-32.83 -10.06-31.42Q-12.72-30 -14.54-27.84L-14.54-27.84Q-16.94-25.1 -16.94-22.13L-16.94-22.13Q-16.94-20.3 -15.65-18.72L-15.65-18.72Q-14.26-17.04 -12.07-17.04Q-9.89-17.04 -7.85-18.72Q-5.81-20.4 -4.94-22.85L-4.94-22.85Q-4.9-23.18 -4.73-23.3Q-4.56-23.42 -4.42-23.28Q-4.27-23.14 -4.27-22.8L-4.27-22.8Q-4.32-19.68 -6.7-17.88Q-9.07-16.08 -11.95-16.08L-11.95-16.08Q-15.22-16.08 -17.28-18Q-19.34-19.92 -19.34-22.94L-19.34-22.94Q-19.34-25.73 -17.86-27.96Q-16.37-30.19 -14.3-31.58Q-12.24-32.98 -9.55-34.08L-9.55-34.08Q-4.99-35.9  0.02-36.65Q 5.04-37.39  9.38-37.39Q 13.73-37.39  17.42-36.62L 17.42-36.62Q 19.15-37.97  20.45-38.45Q 21.74-38.93  21.91-38.93Q 22.08-38.93  22.13-38.88L 22.13-38.88Q 22.42-38.88  22.25-38.57Q 22.08-38.26  21.14-37.63Q 20.21-37.01  19.34-36.14L 19.34-36.14Q 22.42-35.33  24.91-33.84ZM 5.9-12.96L 5.9-12.96Q 9.41-12.96  13.51-14.18Q 17.62-15.41  20.78-17.76L 20.78-17.76Q 26.93-22.42  26.93-27.36L 26.93-27.36Q 26.93-32.98  18.43-34.99L 18.43-34.99Q 15.74-31.25  11.47-23.62Q 7.2-15.98  5.23-12.96L 5.23-12.96Q 5.57-12.96  5.9-12.96Z"/><path text="ort" fill="#ffffff" space="preserve" text-anchor="middle" offset="0.5" font-scale="contain" font-size="48" font-family="Alegreya" transform="matrix(1.0010104035769576, 0, 0, 1.1890596437203902, 208.00503036346663, 270.8551397832187)" font-style="normal" font-weight="400" data-uid="o_f8fn92jkm_6" data-fl-textpath="" d="M-18.024 0.58Q-20.764 0.58 -22.874-0.77Q-24.984-2.11 -26.164-4.54Q-27.334-6.96 -27.334-10.08L-27.334-10.08Q-27.334-13.44 -25.874-16.25Q-24.404-19.06 -21.864-20.66Q-19.324-22.27 -16.204-22.27L-16.204-22.27Q-13.514-22.27 -11.374-20.93Q-9.244-19.58 -8.064-17.16Q-6.884-14.74 -6.884-11.62L-6.884-11.62Q-6.884-8.26 -8.354-5.45Q-9.814-2.64 -12.364-1.03Q-14.904 0.58 -18.024 0.58L-18.024 0.58ZM-16.684-1.78Q-13.994-1.78 -12.404-3.96Q-10.824-6.14 -10.824-9.89L-10.824-9.89Q-10.824-12.72 -11.684-14.95Q-12.554-17.18 -14.114-18.43Q-15.674-19.68 -17.644-19.68L-17.644-19.68Q-20.324-19.68 -21.914-17.47Q-23.494-15.26 -23.494-11.47L-23.494-11.47Q-23.494-8.64 -22.634-6.43Q-21.764-4.22 -20.234-3Q-18.694-1.78 -16.684-1.78L-16.684-1.78ZM-2.33-1.73Q-0.89-1.87 -0.41-2.66Q 0.07-3.46  0.07-5.71L 0.07-5.71L 0.07-16.27Q 0.07-17.86 -0.36-18.53Q-0.79-19.2 -1.75-19.2L-1.75-19.2Q-2.14-19.2 -2.4-19.15Q-2.66-19.1 -2.76-19.06L-2.76-19.06L-3-19.39L-2.86-20.88Q-1.03-21.22  1.01-21.7Q 3.05-22.18  3.62-22.32L 3.62-22.32L 3.96-22.03Q 3.86-21.6  3.67-20.04Q 3.48-18.48  3.53-17.09L 3.53-17.09L 3.72-16.94Q 5.16-19.2  7.1-20.64Q 9.05-22.08  10.49-22.08L 10.49-22.08Q 11.16-22.08  11.52-22.01Q 11.88-21.94  11.98-21.89L 11.98-21.89L 12.12-21.7Q 12.02-21.02  11.71-18.84Q 11.4-16.66  11.35-14.83L 11.35-14.83L 9.48-14.69Q 9.48-16.66  9.22-17.3Q 8.95-17.95  8.18-17.95L 8.18-17.95Q 7.13-17.95  5.93-17.06Q 4.73-16.18  3.72-14.69L 3.72-14.69Q 3.67-13.3  3.53-10.08Q 3.38-6.86  3.34-4.9L 3.34-4.9Q 3.34-3.26  3.82-2.69Q 4.3-2.11  5.64-2.11L 5.64-2.11Q 6.26-2.11  6.89-2.16Q 7.51-2.21  7.75-2.21L 7.75-2.21L 7.8-2.02L 7.37 0.1Q 6.89 0.1  5.45 0.05Q 4.01 0  2.47 0L 2.47 0Q 0.7 0 -0.74 0.07Q-2.18 0.14 -2.57 0.19L-2.57 0.19L-2.33-1.73ZM 23.114 0.58Q 19.844 0.58  18.504-0.74Q 17.164-2.06  17.164-5.23L 17.164-5.23L 17.164-17.04Q 17.164-18.34  16.584-18.86Q 16.004-19.39  14.424-19.44L 14.424-19.44L 14.234-19.73L 14.474-21.17Q 15.864-21.84  17.184-22.82Q 18.504-23.81  19.344-24.55Q 20.184-25.3  20.424-25.54L 20.424-25.54L 21.384-25.15Q 21.334-24.91  21.244-24Q 21.144-23.09  21.004-21.55L 21.004-21.55L 28.054-21.7L 28.204-21.55L 27.764-19.01L 20.804-19.15Q 20.474-13.87  20.474-7.15L 20.474-7.15Q 20.474-4.7  21.314-3.7Q 22.154-2.69  24.214-2.69L 24.214-2.69Q 24.934-2.69  25.654-2.88Q 26.374-3.07  26.854-3.29Q 27.334-3.5  27.484-3.55L 27.484-3.55L 27.964-2.3Q 27.674-2.06  26.734-1.39Q 25.804-0.72  24.724-0.07Q 23.644 0.58  23.114 0.58L 23.114 0.58Z"/><path text="olio" fill="#ffffff" space="preserve" text-anchor="middle" offset="0.5" font-scale="contain" font-size="48" font-family="Alegreya" transform="matrix(0.9890068173408508, 0, 0, 1, 361.18896484375, 338.4366149902344)" font-style="normal" font-weight="400" data-uid="o_f8fn92jkm_7" data-fl-textpath="" d="M-25.488 0.58Q-28.228 0.58 -30.338-0.77Q-32.448-2.11 -33.628-4.54Q-34.798-6.96 -34.798-10.08L-34.798-10.08Q-34.798-13.44 -33.338-16.25Q-31.868-19.06 -29.328-20.66Q-26.788-22.27 -23.668-22.27L-23.668-22.27Q-20.978-22.27 -18.838-20.93Q-16.708-19.58 -15.528-17.16Q-14.348-14.74 -14.348-11.62L-14.348-11.62Q-14.348-8.26 -15.818-5.45Q-17.278-2.64 -19.828-1.03Q-22.368 0.58 -25.488 0.58L-25.488 0.58ZM-24.148-1.78Q-21.458-1.78 -19.868-3.96Q-18.288-6.14 -18.288-9.89L-18.288-9.89Q-18.288-12.72 -19.148-14.95Q-20.018-17.18 -21.578-18.43Q-23.138-19.68 -25.108-19.68L-25.108-19.68Q-27.788-19.68 -29.378-17.47Q-30.958-15.26 -30.958-11.47L-30.958-11.47Q-30.958-8.64 -30.098-6.43Q-29.228-4.22 -27.698-3Q-26.158-1.78 -24.148-1.78L-24.148-1.78ZM-11.324 0.58L-11.134-1.39Q-9.794-1.78 -9.244-2.35Q-8.684-2.93 -8.564-3.74Q-8.444-4.56 -8.444-6.48L-8.444-6.48L-8.444-30.05Q-8.444-31.54 -8.784-32.06Q-9.124-32.59 -10.174-32.59L-10.174-32.59Q-10.414-32.59 -11.284-32.5L-11.284-32.5L-11.424-32.59L-11.234-34.22Q-7.204-34.8 -4.124-35.62L-4.124-35.62L-3.844-34.99Q-4.364-34.18 -4.774-24.72Q-5.184-15.26 -5.184-4.7L-5.184-4.7Q-5.184-3.26 -4.804-2.64Q-4.414-2.02 -3.504-2.02L-3.504-2.02L-1.824-2.11L-1.724-1.92L-2.114 0.14Q-5.284 0 -6.384 0L-6.384 0Q-8.014 0 -11.324 0.58L-11.324 0.58ZM 1.198 0.58L 1.388-1.39Q 2.828-1.78  3.458-2.52Q 4.078-3.26  4.078-4.51L 4.078-4.51L 4.078-16.7Q 4.078-19.3  2.308-19.3L 2.308-19.3Q 1.968-19.3  1.588-19.22Q 1.198-19.15  1.108-19.1L 1.108-19.1L 1.298-20.88Q 3.308-21.17  5.448-21.65Q 7.588-22.13  8.208-22.27L 8.208-22.27L 8.448-21.7Q 8.018-20.69  7.678-15.53Q 7.348-10.37  7.348-4.7L 7.348-4.7Q 7.348-3.31  7.728-2.66Q 8.108-2.02  9.028-2.02L 9.028-2.02Q 9.548-2.02  10.028-2.06Q 10.508-2.11  10.708-2.11L 10.708-2.11L 10.798-1.92L 10.418 0.14Q 9.988 0.1  8.788 0.05Q 7.588 0  6.148 0L 6.148 0Q 4.898 0  3.288 0.24Q 1.678 0.48  1.198 0.58L 1.198 0.58ZM 5.428-27.94Q 4.318-27.94  3.698-28.66Q 3.068-29.38  3.068-30.38L 3.068-30.38Q 3.068-31.54  3.888-32.38Q 4.708-33.22  5.908-33.22L 5.908-33.22Q 7.008-33.22  7.628-32.5Q 8.258-31.78  8.258-30.77L 8.258-30.77Q 8.258-29.62  7.438-28.78Q 6.628-27.94  5.428-27.94L 5.428-27.94ZM 23.664 0.58Q 20.924 0.58  18.814-0.77Q 16.704-2.11  15.524-4.54Q 14.354-6.96  14.354-10.08L 14.354-10.08Q 14.354-13.44  15.814-16.25Q 17.284-19.06  19.824-20.66Q 22.364-22.27  25.484-22.27L 25.484-22.27Q 28.174-22.27  30.314-20.93Q 32.444-19.58  33.624-17.16Q 34.804-14.74  34.804-11.62L 34.804-11.62Q 34.804-8.26  33.334-5.45Q 31.874-2.64  29.324-1.03Q 26.784 0.58  23.664 0.58L 23.664 0.58ZM 25.004-1.78Q 27.694-1.78  29.284-3.96Q 30.864-6.14  30.864-9.89L 30.864-9.89Q 30.864-12.72  30.004-14.95Q 29.134-17.18  27.574-18.43Q 26.014-19.68  24.044-19.68L 24.044-19.68Q 21.364-19.68  19.774-17.47Q 18.194-15.26  18.194-11.47L 18.194-11.47Q 18.194-8.64  19.054-6.43Q 19.924-4.22  21.454-3Q 22.994-1.78  25.004-1.78L 25.004-1.78Z"/></g></svg>