<svg xmlns="http://www.w3.org/2000/svg" width="512" height="512" viewBox="0 0 512 512" style="overflow: visible;" data-bbox="32.364 60.419 447.273 391.161"><g transform="matrix(1.3365471628554555, 0, 0, 1.3365471628554555, 16.350364797854017, 13.74413492126381)" data-uid="o_f7ii3m2de_4"><svg version="1.1" id="Calque_1" xmlns="http://www.w3.org/2000/svg" x="0px" y="0px" viewBox="0 0 360 360" enable-background="new 0 0 360 360" width="360" height="360" data-uid="o_f7ii3m2de_5"><path class="st0" d="M196.56 228.71l0.54 0.24l0.49-1.59c0.24-0.69 0.53-1.36 0.88-2.01l0.06-0.11l0-0.13
	c0.02-1.26-0.16-2.52-0.51-3.73l-0.01-0.04l-1.62-3.42l-0.03-0.04c-1.52-2.16-3.37-4.1-5.96-4.67l-0.51-0.11l-0.18 0.45
	C187.33 219.45 190.75 226.14 196.56 228.71z" fill="#2a5868" data-uid="o_f7ii3m2de_6"></path><path class="st0" d="M198.91 228.39l-0.29 1.03l0.56 0.11c6.48 1.31 12.92-2.73 14.56-9.13l0.14-0.54l-0.54-0.11
	c-2.38-0.48-4.86-0.25-7.12 0.65C202.6 221.99 200.06 224.6 198.91 228.39z" fill="#2a5868" data-uid="o_f7ii3m2de_7"></path><path class="st0" d="M199.8 222.03l0.21 0.98l0.69-0.73c1.18-1.23 2.58-2.25 4.12-2.98l0.3-0.14l0-0.33
	c0.04-2.27-0.55-4.51-1.69-6.47l-0.26-0.44l-0.45 0.24c-2 1.07-3.69 2.66-4.85 4.61l-0.14 0.24l1.81 3.97
	C199.64 221.33 199.72 221.68 199.8 222.03z" fill="#2a5868" data-uid="o_f7ii3m2de_8"></path><path class="st0" d="M212.08 301.08c-1.9-1.98-4.4-3.29-7.12-3.71l-0.56-0.09l-0.22 2.88l-0.14 1.34l0.03 0.1
	c1.41 5 5.72 8.63 10.9 9.1l0.55 0.05l0.02-0.55C215.7 306.94 214.41 303.4 212.08 301.08z" fill="#2a5868" data-uid="o_f7ii3m2de_9"></path><path class="st0" d="M202.79 297.22l-0.56 0.04c-6.62 0.44-11.76 6.01-11.66 12.64l0.01 0.55l0.55-0.04
	c2.46-0.16 4.8-1.04 6.75-2.54c3.03-2.32 4.93-6 4.91-9.83L202.79 297.22z" fill="#2a5868" data-uid="o_f7ii3m2de_10"></path><path class="st0" d="M203.6 304.67l-0.46-0.89l-0.48 0.88c-0.82 1.5-1.9 2.84-3.19 3.96l-0.25 0.21l0.08 0.32
	c0.56 2.2 1.72 4.21 3.33 5.8l0.36 0.36l0.37-0.35c1.66-1.56 2.86-3.53 3.48-5.72l0.09-0.31l-0.6-0.56
	C205.23 307.29 204.3 306.04 203.6 304.67z" fill="#2a5868" data-uid="o_f7ii3m2de_11"></path><path class="st1" d="M207.73 256c-2.02 1.68-4.53 3.53-6.87 4.77c-0.92 0.49-1.64-0.9-0.75-1.37c2.39-1.27 4.97-3.19 7.02-4.94
	l0.88-0.75l-1.15-0.17c-6.04-0.91-11.43 3.94-11.19 10.04l0.01 0.37l0.35 0.11c5.59 1.76 11.48-1.78 12.53-7.56l0.26-1.43
	L207.73 256z" fill-rule="evenodd" clip-rule="evenodd" fill="#6d909b" data-uid="o_f7ii3m2de_12"></path><path class="st1" d="M179.48 224.74l-0.37-0.05l-0.17 0.33c-2.33 4.45-0.89 9.99 3.33 12.71c0.77 0.5 1.6 0.88 2.48 1.15l1.11 0.34
	l-0.48-1.06c-1.11-2.46-2.61-5.28-4.24-7.47c-0.61-0.82 0.67-1.75 1.26-0.93c1.61 2.24 3.01 4.76 4.17 7.25l0.61 1.32l0.38-1.4
	c0.73-2.7 0.26-5.56-1.28-7.89C184.74 226.67 182.27 225.12 179.48 224.74z" fill-rule="evenodd" clip-rule="evenodd" fill="#6d909b" data-uid="o_f7ii3m2de_13"></path><path class="st2" d="M161.49 253.04l0.34-0.14l-0.01-0.37c-0.21-5.87-5.52-10.22-11.32-9.27l-1.43 0.23l1.25 0.74
	c2.31 1.37 4.77 3.06 6.78 4.87c0.77 0.69-0.26 1.85-1.03 1.17c-2.05-1.84-4.63-3.59-7.01-4.96l-1-0.58l0.22 1.14
	C149.45 251.88 155.82 255.32 161.49 253.04z" fill="#66b100" data-uid="o_f7ii3m2de_14"></path><path class="st2" d="M171.99 214.21l-0.35-0.04c-6.76-0.79-13.05 3.81-14.29 10.51c-0.27 1.47-0.29 2.99-0.05 4.47l0.15 0.94
	l0.72-0.63c2.67-2.34 5.27-4.98 7.44-7.8c0.62-0.81 1.86 0.15 1.24 0.96c-2.09 2.71-4.54 5.25-7.09 7.53l-1.1 0.98l1.47-0.06
	c3.99-0.17 7.62-2.12 9.97-5.35c2.36-3.24 3.09-7.32 2-11.18L171.99 214.21z" fill="#66b100" data-uid="o_f7ii3m2de_15"></path><path class="st2" d="M246.72 239.06l0.53-0.64c4.25-5.13 7.92-10.74 10.92-16.7c0.46-0.92 1.86-0.21 1.4 0.7
	c-2.79 5.53-6.14 10.77-10 15.61l-0.88 1.11l1.39-0.26c6.17-1.14 11.36-5.05 14.16-10.66c2.83-5.67 2.81-12.24-0.07-17.89l-0.15-0.3
	l-0.34 0.01c-14.22 0.5-23.34 15.37-17.32 28.26L246.72 239.06z" fill="#66b100" data-uid="o_f7ii3m2de_16"></path><path class="st2" d="M267.87 261.23c-1.88-5.18-6.23-9.05-11.61-10.3c-2.64-0.62-5.8-0.58-8.38 0.27c-2 0.6-3.89 1.6-5.53 2.92
	l-0.77 0.62l0.94 0.29c3.53 1.11 7.16 1.96 10.81 2.55c1.45 0.23 3.04 0.47 4.51 0.55c1.02 0.06 0.92 1.63-0.1 1.56
	c-4.92-0.34-10.49-1.58-15.17-3.01l-1.19-0.36l0.56 1.11c3.56 7.01 11.65 10.49 19.18 8.21c2.37-0.66 4.82-2.15 6.59-3.86l0.25-0.24
	L267.87 261.23z" fill="#66b100" data-uid="o_f7ii3m2de_17"></path><path class="st2" d="M224.8 222.7l-0.35-0.07l-0.19 0.3c-3.47 5.39-2.21 12.6 2.93 16.46c1.11 0.83 2.35 1.47 3.67 1.89l1.01 0.32
	l-0.35-1c-1.2-3.39-2.88-7.2-4.82-10.26c-0.55-0.89 0.78-1.7 1.32-0.83c1.91 3.06 3.55 6.69 4.78 10.06l0.46 1.25l0.52-1.22
	C236.86 232.39 232.49 224.17 224.8 222.7z" fill="#66b100" data-uid="o_f7ii3m2de_18"></path><path class="st2" d="M164.26 277.91c-1.16-0.87-2.46-1.53-3.85-1.95l-1-0.31l0.35 0.99c1.24 3.49 2.99 7.45 4.99 10.6
	c0.56 0.89-0.78 1.69-1.31 0.84c-1.98-3.17-3.69-6.91-4.96-10.4l-0.45-1.24l-0.53 1.21c-3.23 7.42 1.3 15.95 9.26 17.43l0.35 0.07
	l0.19-0.3C170.87 289.3 169.56 281.87 164.26 277.91z" fill="#66b100" data-uid="o_f7ii3m2de_19"></path><path class="st1" d="M217.59 272.63c1.44 5.66-2.45 11.36-8.25 12.08l-1.44 0.18l0.99-1.06c1.77-1.9 3.8-4.35 5.15-6.6
	c0.53-0.88-0.8-1.68-1.34-0.8c-1.39 2.31-3.47 4.79-5.32 6.72l-0.8 0.84l-0.11-1.15c-0.08-0.91-0.04-1.83 0.13-2.73
	c0.94-4.94 5.53-8.36 10.53-7.87l0.37 0.04L217.59 272.63z M194.41 287.83c-2.73 0.05-5.86-0.12-8.55-0.66
	c-1.02-0.19-1.31 1.34-0.3 1.54c2.63 0.52 5.66 0.7 8.33 0.69l1.45-0.01l-1.11 0.94c-4.48 3.79-11.27 2.78-14.47-2.14l-0.2-0.31
	l0.22-0.3c3.69-4.87 10.92-5.18 15.02-0.64l0.78 0.86L194.41 287.83z" fill-rule="evenodd" clip-rule="evenodd" fill="#6d909b" data-uid="o_f7ii3m2de_20"></path><path class="st3" d="M147.25 228.54c-1.33-2.31-3.02-4.83-4.79-6.85c-0.67-0.76-1.85 0.25-1.17 1.04c1.82 2.06 3.54 4.68 4.87 7.06
	l0.57 1.01l-1.14-0.24c-0.89-0.19-1.76-0.5-2.57-0.92c-4.45-2.34-6.37-7.73-4.44-12.37l0.14-0.34l0.37 0.02
	c5.86 0.29 10.16 5.64 9.13 11.42l-0.25 1.43L147.25 228.54z" fill-rule="evenodd" clip-rule="evenodd" fill="#66b100" data-uid="o_f7ii3m2de_21"></path><path class="st4" d="M125.94 277.86l-5.81 9.35c-0.63 0.77-1.84-0.18-1.21-0.98l0.02-0.02l5.82-9.45l-1.14 0.18
	c-8.97 1.44-14.06 11.21-10.1 19.39l0.15 0.32l0.35-0.02c4.26-0.23 8.11-2.4 10.51-5.92c2.37-3.46 3.01-7.75 1.75-11.76
	L125.94 277.86z" fill="#6d909b" data-uid="o_f7ii3m2de_22"></path><path class="st4" d="M118.22 271.41l1.42 0.31l-0.89-1.15c-1.63-2.12-3.32-4.62-4.51-7.03c-0.47-0.94 0.96-1.6 1.39-0.71
	c1.17 2.42 3.03 5.11 4.68 7.2l0.72 0.91l0.21-1.14c1.13-6.02-3.51-11.56-9.63-11.54l-0.37 0l-0.12 0.35
	C109.15 264.15 112.48 270.15 118.22 271.41z" fill="#6d909b" data-uid="o_f7ii3m2de_23"></path><path class="st4" d="M145.8 278.99c-1.11-4.75-6.01-7.61-10.69-6.23l-1.49 0.44l1.45 0.56c2.04 0.78 4.41 1.85 6.27 3.02
	c0.87 0.55 0.04 1.87-0.83 1.32c-1.93-1.21-4.38-2.29-6.5-3.07l-1.17-0.43l0.5 1.14c2.07 4.7 7.83 6.5 12.22 3.82l0.33-0.2
	L145.8 278.99z" fill="#6d909b" data-uid="o_f7ii3m2de_24"></path><path class="st0" d="M154.95 58.11l0.46 0.89l0.48-0.88c0.82-1.5 1.9-2.84 3.19-3.96l0.25-0.21l-0.08-0.32
	c-0.56-2.2-1.72-4.21-3.33-5.8l-0.36-0.36l-0.37 0.35c-1.66 1.56-2.86 3.53-3.48 5.72l-0.09 0.31l0.6 0.56
	C153.32 55.48 154.25 56.73 154.95 58.11z" fill="#2a5868" data-uid="o_f7ii3m2de_25"></path><path class="st0" d="M153.59 65.4l0.56 0.09l0.22-2.88l0.14-1.34l-0.03-0.1c-1.41-5-5.72-8.63-10.9-9.1l-0.55-0.05L143 52.56
	c-0.15 3.27 1.14 6.81 3.47 9.13C148.36 63.67 150.86 64.98 153.59 65.4z" fill="#2a5868" data-uid="o_f7ii3m2de_26"></path><path class="st0" d="M155.76 65.55l0.56-0.04c6.62-0.44 11.76-6.01 11.66-12.64l-0.01-0.55l-0.55 0.04
	c-2.46 0.16-4.8 1.04-6.75 2.54c-3.03 2.32-4.93 6-4.91 9.83L155.76 65.55z" fill="#2a5868" data-uid="o_f7ii3m2de_27"></path><path class="st0" d="M159.64 134.38l0.29-1.03l-0.56-0.11c-6.48-1.31-12.92 2.73-14.56 9.14l-0.14 0.54l0.55 0.11
	c2.38 0.48 4.86 0.25 7.12-0.65C155.95 140.78 158.49 138.18 159.64 134.38z" fill="#2a5868" data-uid="o_f7ii3m2de_28"></path><path class="st0" d="M161.99 134.07l-0.54-0.24l-0.49 1.59c-0.24 0.69-0.53 1.36-0.88 2.01l-0.06 0.11l0 0.13
	c-0.02 1.26 0.15 2.52 0.51 3.73l0.01 0.04l1.62 3.42l0.03 0.04c1.52 2.16 3.44 5.51 5.96 4.67l0.36-0.12l0.33-0.22
	C174.11 145.67 167.8 136.64 161.99 134.07z" fill="#2a5868" data-uid="o_f7ii3m2de_29"></path><path class="st0" d="M158.75 140.74l-0.21-0.98l-0.69 0.73c-1.18 1.23-2.58 2.25-4.12 2.98l-0.29 0.14l-0.01 0.33
	c-0.04 2.27 0.55 4.51 1.69 6.47l0.26 0.44l0.45-0.24c2-1.07 3.69-2.66 4.85-4.61l0.14-0.24l-1.81-3.96
	C158.91 141.45 158.83 141.1 158.75 140.74z" fill="#2a5868" data-uid="o_f7ii3m2de_30"></path><path class="st3" d="M202.48 112.5c2.05 1.84 4.63 3.59 7.01 4.96l1 0.58l-0.22-1.14c-1.17-6.01-7.54-9.45-13.21-7.17l-0.34 0.14
	l0.01 0.37c0.21 5.87 5.52 10.22 11.32 9.27l1.43-0.24l-1.25-0.74c-2.31-1.37-4.77-3.06-6.78-4.87
	C200.67 112.98 201.71 111.82 202.48 112.5z" fill-rule="evenodd" clip-rule="evenodd" fill="#66b100" data-uid="o_f7ii3m2de_31"></path><path class="st3" d="M186.46 148.22c-1.09-3.86-0.36-7.94 2-11.18c2.35-3.23 5.98-5.17 9.97-5.35l1.47-0.06l-1.1 0.98
	c-2.54 2.28-5 4.82-7.09 7.53c-0.62 0.81 0.61 1.76 1.24 0.96c2.17-2.82 4.76-5.46 7.44-7.8l0.72-0.63l0.15 0.94
	c0.24 1.48 0.22 3-0.05 4.47c-1.25 6.7-7.53 11.3-14.3 10.51l-0.35-0.04L186.46 148.22z" fill-rule="evenodd" clip-rule="evenodd" fill="#66b100" data-uid="o_f7ii3m2de_32"></path><path class="st1" d="M151.41 108.33c2.05-1.75 4.63-3.66 7.02-4.94c0.9-0.48 0.18-1.87-0.75-1.38c-2.33 1.24-4.85 3.09-6.87 4.77
	l-1.12 0.93l0.26-1.43c1.05-5.77 6.94-9.32 12.53-7.56l0.35 0.11l0.01 0.37c0.24 6.1-5.14 10.95-11.19 10.04l-1.15-0.17
	L151.41 108.33z" fill-rule="evenodd" clip-rule="evenodd" fill="#6d909b" data-uid="o_f7ii3m2de_33"></path><path class="st1" d="M179.07 138.04c-2.8-0.38-5.26-1.94-6.82-4.3c-1.54-2.34-2-5.19-1.28-7.89l0.38-1.4l0.61 1.32
	c1.16 2.5 2.56 5.01 4.17 7.25c0.59 0.82 1.87-0.11 1.26-0.93c-1.62-2.18-3.13-5-4.24-7.47l-0.48-1.06l1.11 0.34
	c0.88 0.26 1.71 0.65 2.48 1.15c4.23 2.73 5.67 8.26 3.33 12.71l-0.17 0.33L179.07 138.04z" fill-rule="evenodd" clip-rule="evenodd" fill="#6d909b" data-uid="o_f7ii3m2de_34"></path><path class="st3" d="M112.18 124.47c6.02 12.89-3.1 27.77-17.32 28.26l-0.34 0.01l-0.15-0.3c-2.88-5.65-2.9-12.22-0.07-17.89
	c2.8-5.62 7.99-9.52 14.16-10.66l1.39-0.26l-0.88 1.1c-3.86 4.84-7.21 10.08-10 15.61c-0.46 0.92 0.93 1.62 1.39 0.7
	c3-5.95 6.67-11.56 10.92-16.7l0.53-0.64L112.18 124.47z M90.81 100.99c1.77-1.7 4.23-3.2 6.59-3.86
	c7.53-2.27 15.62 1.21 19.18 8.21l0.56 1.11l-1.19-0.36c-4.68-1.43-10.25-2.66-15.17-3.01c-1.02-0.07-1.12 1.5-0.1 1.56
	c1.47 0.08 3.06 0.32 4.51 0.55c3.65 0.58 7.29 1.44 10.81 2.55l0.94 0.29l-0.77 0.62c-1.64 1.32-3.52 2.32-5.53 2.92
	c-2.58 0.85-5.74 0.88-8.38 0.27c-5.38-1.25-9.72-5.12-11.61-10.3l-0.12-0.32L90.81 100.99z M125.75 123.22
	c1.23 3.37 2.87 7 4.78 10.06c0.54 0.86 1.87 0.05 1.32-0.83c-1.93-3.06-3.62-6.87-4.82-10.26l-0.35-1l1.01 0.32
	c1.32 0.42 2.56 1.06 3.67 1.89c5.14 3.86 6.4 11.06 2.93 16.46l-0.19 0.3l-0.35-0.07c-7.69-1.47-12.06-9.69-8.98-16.89l0.52-1.22
	L125.75 123.22z M200.07 85.1c-1.28-3.49-2.98-7.23-4.96-10.4c-0.53-0.85-1.87-0.04-1.31 0.84c2 3.15 3.75 7.1 4.99 10.6l0.35 0.99
	l-1-0.31c-1.38-0.43-2.69-1.09-3.85-1.96c-5.3-3.96-6.61-11.38-3.03-16.94l0.19-0.3l0.35 0.07c7.95 1.49 12.48 10.01 9.26 17.44
	l-0.53 1.21L200.07 85.1z" fill-rule="evenodd" clip-rule="evenodd" fill="#66b100" data-uid="o_f7ii3m2de_35"></path><path class="st1" d="M140.96 90.14c-1.44-5.66 2.45-11.36 8.25-12.08l1.44-0.18l-0.99 1.06c-1.77 1.9-3.8 4.35-5.15 6.6
	c-0.53 0.88 0.81 1.68 1.34 0.8c1.39-2.31 3.47-4.79 5.32-6.72l0.8-0.84l0.11 1.15c0.08 0.91 0.04 1.83-0.13 2.73
	c-0.93 4.94-5.53 8.36-10.53 7.87l-0.37-0.04L140.96 90.14z M164.14 74.95c2.73-0.05 5.86 0.12 8.55 0.66
	c1.02 0.19 1.31-1.34 0.3-1.54c-2.63-0.52-5.66-0.7-8.33-0.69l-1.45 0.01l1.11-0.94c4.48-3.79 11.27-2.78 14.47 2.14l0.2 0.31
	l-0.22 0.3c-3.69 4.87-10.92 5.18-15.02 0.64l-0.78-0.86L164.14 74.95z" fill-rule="evenodd" clip-rule="evenodd" fill="#6d909b" data-uid="o_f7ii3m2de_36"></path><path class="st3" d="M211.3 134.23c1.33 2.31 3.02 4.84 4.79 6.85c0.67 0.76 1.85-0.25 1.17-1.04c-1.82-2.06-3.54-4.68-4.87-7.06
	l-0.57-1.01l1.14 0.24c0.89 0.19 1.76 0.5 2.57 0.92c4.45 2.34 6.37 7.73 4.44 12.37l-0.14 0.34l-0.37-0.02
	c-5.86-0.29-10.16-5.65-9.13-11.43l0.25-1.42L211.3 134.23z" fill-rule="evenodd" clip-rule="evenodd" fill="#66b100" data-uid="o_f7ii3m2de_37"></path><path class="st4" d="M240.33 91.36l-1.42-0.31l0.89 1.15c1.63 2.12 3.32 4.62 4.51 7.03c0.47 0.94-0.96 1.6-1.39 0.71
	c-1.17-2.42-3.03-5.11-4.68-7.2l-0.72-0.91l-0.21 1.14c-1.13 6.02 3.51 11.56 9.63 11.54l0.37 0l0.12-0.35
	C249.39 98.62 246.07 92.62 240.33 91.36z" fill="#6d909b" data-uid="o_f7ii3m2de_38"></path><path class="st4" d="M218.04 84.67c1.93 1.21 4.38 2.29 6.5 3.07l1.17 0.43l-0.5-1.14c-2.07-4.7-7.83-6.5-12.22-3.82l-0.33 0.2
	l0.09 0.37c1.11 4.75 6.01 7.61 10.69 6.23l1.49-0.44l-1.45-0.56c-2.04-0.78-4.41-1.85-6.27-3.02
	C216.33 85.45 217.16 84.13 218.04 84.67z" fill="#6d909b" data-uid="o_f7ii3m2de_39"></path><path class="st4" d="M245.03 66.44l-0.15-0.32l-0.35 0.02c-4.26 0.23-8.11 2.4-10.51 5.92c-2.36 3.46-3.01 7.75-1.75 11.76l0.34 1.1
	l5.81-9.35c0.63-0.77 1.84 0.18 1.21 0.98l-0.02 0.02l-5.82 9.45l1.14-0.18C243.91 84.39 249 74.62 245.03 66.44z" fill="#6d909b" data-uid="o_f7ii3m2de_40"></path><path class="st5" d="M243.21 90.14c-1.85-0.85-3.89-1.21-5.92-1.05c-0.31 0-0.61 0.11-0.86 0.33c-0.16 0.14-0.28 0.31-0.35 0.5
	c-0.84 1.87-1.18 3.93-0.98 5.98c0.19 2 0.89 3.97 2.13 5.72c1.24 1.75 2.87 3.06 4.69 3.9c1.88 0.87 3.96 1.23 6.03 1.04
	c0.49-0.04 0.89-0.35 1.08-0.77l0 0c0.86-1.88 1.2-3.97 1.01-6.03c-0.19-2-0.89-3.97-2.13-5.72
	C246.66 92.29 245.03 90.97 243.21 90.14z M246.92 103.98c-1.35 0-2.69-0.29-3.92-0.85c-1.42-0.65-2.69-1.67-3.65-3.04
	c-0.97-1.36-1.51-2.9-1.66-4.45c-0.08-0.86-0.04-1.73 0.12-2.58c3.04 3.84 4.62 7.09 4.62 7.1c0.32 0.65 1.11 0.91 1.75 0.58
	c0.65-0.32 0.91-1.11 0.58-1.75c-0.01-0.01-1.58-3.25-4.56-7.12c0.65 0.14 1.29 0.36 1.9 0.64c1.42 0.65 2.68 1.67 3.65 3.04
	c0.97 1.36 1.51 2.9 1.66 4.45C247.55 101.35 247.38 102.71 246.92 103.98z" fill="black" data-uid="o_f7ii3m2de_41"></path><path class="st5" d="M193.03 86.53c2.07 1.55 4.51 2.53 7.06 2.84v0l0.04 0l0.01 0l0.01 0l0.04 0l0.01 0h0.01h0.02
	c0.08 0 0.15-0.01 0.23-0.02l0.02 0l0.06-0.01l0.01 0l0.01 0l0.04-0.01l0.01 0l0.01 0l0.02-0.01l0.02-0.01l0.02-0.01l0 0l0.02-0.01
	l0.01 0l0.01 0l0.02-0.01h0l0.04-0.02l0.02-0.01l0 0l0.02-0.01l0.01-0.01l0.01 0l0.02-0.01l0 0l0.01-0.01l0.01-0.01l0.01 0
	l0.02-0.01l0 0l0.01-0.01c0.08-0.05 0.15-0.11 0.22-0.17l0.01-0.01l0 0l0.01-0.02l0.02-0.02l0.01-0.01l0 0l0.01-0.02l0 0
	c0.02-0.02 0.04-0.04 0.05-0.07l0.01-0.01l0.02-0.03c1.52-2.07 2.48-4.5 2.77-7.04c0.29-2.47-0.05-5.05-1.1-7.49
	c-1.05-2.44-2.69-4.46-4.69-5.95c-2.07-1.55-4.51-2.53-7.06-2.84v0c-0.45-0.05-0.92 0.13-1.2 0.52c-1.53 2.07-2.5 4.52-2.8 7.08
	c-0.29 2.47 0.05 5.05 1.1 7.49C189.4 83.03 191.04 85.04 193.03 86.53z M189.85 73.39c0.21-1.85 0.85-3.62 1.85-5.17
	c1.82 0.34 3.55 1.1 5.04 2.21c1.63 1.22 2.98 2.88 3.85 4.89c0.87 2.01 1.14 4.13 0.91 6.16c-0.14 1.19-0.45 2.35-0.93 3.44
	c-2.29-6.27-5-10.48-5.01-10.5c-0.39-0.61-1.2-0.79-1.81-0.4c-0.61 0.39-0.79 1.2-0.4 1.8c0.01 0.01 2.72 4.22 4.94 10.49
	c-1.32-0.41-2.57-1.04-3.68-1.87c-1.63-1.22-2.98-2.88-3.85-4.9C189.89 77.53 189.61 75.42 189.85 73.39z" fill="black" data-uid="o_f7ii3m2de_42"></path><path class="st5" d="M160.65 73.51c-0.17 0.24-0.26 0.53-0.24 0.84c0.02 0.23 0.09 0.44 0.2 0.62c0.98 1.79 2.41 3.31 4.13 4.39
	c1.69 1.06 3.68 1.7 5.83 1.78c2.14 0.08 4.18-0.42 5.94-1.35c1.83-0.97 3.39-2.41 4.5-4.16c0.27-0.43 0.26-0.96 0.01-1.37
	c-0.98-1.81-2.41-3.33-4.15-4.42c-1.69-1.06-3.69-1.7-5.83-1.78c-2.14-0.08-4.17 0.42-5.94 1.35
	C163.29 70.37 161.75 71.78 160.65 73.51z M170.95 70.67c1.67 0.06 3.22 0.56 4.54 1.39c1.15 0.72 2.13 1.68 2.86 2.81
	c-0.81 1.07-1.86 1.96-3.06 2.6c-1.38 0.73-2.96 1.12-4.63 1.06c-1.67-0.06-3.22-0.56-4.54-1.39c-0.74-0.46-1.4-1.02-1.98-1.66
	c4.89-0.08 8.43 0.64 8.45 0.65c0.71 0.14 1.4-0.33 1.54-1.04c0.14-0.71-0.33-1.4-1.04-1.54c-0.01 0-3.53-0.72-8.43-0.7
	c0.51-0.43 1.06-0.81 1.66-1.12C167.7 71 169.29 70.61 170.95 70.67z" fill="black" data-uid="o_f7ii3m2de_43"></path><path class="st5" d="M212.61 88.29c1.09 1.43 2.55 2.6 4.32 3.34c1.77 0.74 3.63 0.97 5.41 0.74c1.84-0.23 3.59-0.94 5.08-2.06
	l0.01-0.01l0.02-0.01l0 0l0.02-0.01l0 0l0.01-0.01l0.01-0.01l0.01-0.01l0.02-0.01l0 0l0.02-0.02l0 0l0.01-0.01l0.01-0.01l0.01-0.01
	l0.01-0.02l0 0l0.02-0.02l0 0l0.01-0.01l0.01-0.01l0.02-0.02l0 0l0 0l0.01-0.02l0-0.01l0.01-0.01l0.01-0.01l0-0.01l0.01-0.02l0 0
	l0.01-0.02l0.01-0.01l0.02-0.03l0 0l0.01-0.02l0-0.01l0.01-0.01l0.01-0.01l0-0.01l0.01-0.02l0 0l0.01-0.02l0.01-0.01l0-0.01
	l0.01-0.02v0l0.01-0.02l0-0.01l0.01-0.01l0.01-0.02v0l0.01-0.02l0-0.01l0.01-0.01l0.01-0.02v0l0.01-0.02l0-0.01l0-0.02l0.01-0.02
	l0-0.01l0.01-0.02l0-0.01l0-0.02l0.01-0.04l0-0.01l0-0.02l0-0.02l0-0.02c0.02-0.12 0.02-0.24 0.01-0.36l0-0.02l0-0.01l0-0.02l0-0.02
	v-0.01l0-0.02v0l0-0.02v0c-0.25-1.81-0.97-3.52-2.07-4.97c-1.09-1.43-2.55-2.6-4.32-3.34l-0.07-0.03c-1.75-0.72-3.58-0.94-5.34-0.72
	c-1.84 0.23-3.6 0.94-5.08 2.06c-0.41 0.31-0.59 0.83-0.5 1.31C210.79 85.13 211.51 86.84 212.61 88.29z M216.43 82.55
	c1.32-0.17 2.7 0 4.01 0.53l0.06 0.03c1.34 0.56 2.44 1.44 3.25 2.51c0.38 0.5 0.71 1.05 0.96 1.63c-3.86-1.42-6.39-3.02-6.4-3.02
	c-0.61-0.39-1.42-0.2-1.81 0.41c-0.38 0.61-0.2 1.42 0.41 1.8c0.01 0.01 2.53 1.6 6.36 3.07c-0.41 0.12-0.84 0.21-1.26 0.26
	c-1.34 0.17-2.74 0-4.07-0.56c-1.34-0.56-2.44-1.44-3.25-2.51c-0.69-0.9-1.18-1.94-1.43-3.04C214.23 83.08 215.31 82.7 216.43 82.55
	z" fill="black" data-uid="o_f7ii3m2de_44"></path><path class="st5" d="M200.02 119.82c1.8 1.17 3.8 1.79 5.8 1.89c2.05 0.11 4.11-0.32 5.95-1.24l0.03-0.01l0.01 0l0.02-0.01l0 0
	l0.02-0.01l0.01 0l0.01-0.01l0.01-0.01l0 0l0.02-0.01l0 0l0.01-0.01l0.01-0.01l0.01-0.01l0.02-0.01l0 0l0.02-0.01l0.01 0l0.01-0.01
	l0.01-0.01l0 0l0.02-0.01l0 0l0.02-0.01l0.01-0.01l0.01-0.01l0.02-0.01h0l0.02-0.01l0.01-0.01l0.01-0.01l0.01-0.01l0 0l0.02-0.02
	l0 0l0.01-0.01l0.01-0.01l0.02-0.02l0 0l0.01-0.01l0.01-0.01l0-0.01l0.01-0.02l0 0l0.01-0.01l0.01-0.01l0-0.01l0.01-0.02l0 0
	l0.01-0.02l0.01-0.01l0-0.01l0.01-0.02l0 0l0.01-0.02l0.01-0.01l0-0.01l0.01-0.02l0 0l0.01-0.02l0.01-0.01l0 0l0.01-0.02l0-0.01
	l0.01-0.01l0.01-0.02l0 0l0.01-0.02l0-0.01l0.01-0.01l0.01-0.02l0 0l0.01-0.02l0-0.01l0-0.01l0.01-0.02v0l0.01-0.02l0-0.01l0-0.01
	l0.01-0.02l0.01-0.04l0-0.02l0.01-0.02l0-0.01l0-0.01c0.01-0.04 0.01-0.07 0.02-0.11l0-0.01v-0.01l0-0.02v0l0-0.02v-0.01l0-0.01
	l0-0.02v0l0-0.02v0v0c0.09-2.05-0.35-4.11-1.29-5.94c-0.91-1.78-2.29-3.36-4.09-4.53c-1.8-1.17-3.8-1.79-5.8-1.89
	c-2.07-0.11-4.14 0.32-5.99 1.26c-0.45 0.23-0.71 0.67-0.72 1.14c-0.09 2.06 0.35 4.11 1.29 5.95
	C196.85 117.08 198.22 118.66 200.02 119.82z M201.22 109.57c1.55 0.08 3.11 0.56 4.51 1.47c1.4 0.91 2.47 2.14 3.18 3.52
	c0.39 0.77 0.68 1.6 0.84 2.44c-4.24-2.44-6.91-4.89-6.92-4.9c-0.54-0.48-1.37-0.43-1.85 0.11c-0.48 0.54-0.43 1.37 0.11 1.85
	c0.01 0.01 2.66 2.43 6.87 4.93c-0.66 0.11-1.33 0.15-2 0.11c-1.55-0.08-3.11-0.56-4.51-1.47c-1.4-0.91-2.48-2.14-3.18-3.52
	c-0.62-1.2-0.96-2.53-1.01-3.88C198.51 109.72 199.86 109.5 201.22 109.57z" fill="black" data-uid="o_f7ii3m2de_45"></path><path class="st5" d="M216.5 131.29c-1.8-0.95-3.83-1.42-5.86-1.36c-0.49-0.02-0.98 0.24-1.22 0.71c-0.95 1.84-1.41 3.9-1.33 5.97
	c0.09 2 0.68 4.01 1.82 5.82c1.15 1.82 2.71 3.21 4.48 4.14c1.8 0.95 3.83 1.42 5.86 1.36c0.49 0.02 0.98-0.24 1.22-0.71
	c0.95-1.84 1.41-3.9 1.32-5.97c-0.08-2-0.68-4.01-1.82-5.82C219.83 133.61 218.27 132.22 216.5 131.29z M219.48 145.3
	c-1.35-0.07-2.67-0.43-3.87-1.06c-1.38-0.73-2.59-1.81-3.48-3.22c-0.89-1.41-1.36-2.97-1.42-4.53c-0.03-0.67 0.02-1.34 0.14-2
	c2.45 4.24 4.85 6.93 4.85 6.94c0.48 0.54 1.31 0.59 1.85 0.11c0.54-0.48 0.59-1.31 0.11-1.85c-0.01-0.01-2.42-2.7-4.81-6.97
	c0.84 0.18 1.66 0.47 2.43 0.87c1.38 0.73 2.59 1.81 3.48 3.22c0.89 1.41 1.36 2.98 1.42 4.53C220.24 142.7 220 144.06 219.48 145.3
	z" fill="black" data-uid="o_f7ii3m2de_46"></path><path class="st5" d="M311.92 151.29l-46.4 0.37c-4.24-12.46-11.1-23.7-19.94-33.07c-5.63-6.18-9.41-11.92-11.32-17.23
	c-1.73-4.79-1.93-9.22-0.62-13.3c2.42-0.13 4.8-0.83 6.91-2.03c2.31-1.31 4.32-3.23 5.76-5.67c1.44-2.45 2.15-5.14 2.18-7.8
	c0.03-2.75-0.66-5.47-2-7.87l0 0c-0.22-0.4-0.65-0.67-1.13-0.67c-2.75-0.01-5.47 0.69-7.86 2.05c-2.31 1.31-4.32 3.23-5.77 5.67
	c-1.44 2.45-2.15 5.14-2.18 7.8c-0.03 2.55 0.57 5.07 1.72 7.33c-1.63 4.74-1.46 9.86 0.53 15.36c0.8 2.21 1.89 4.49 3.28 6.83
	c-0.77-0.6-1.55-1.18-2.34-1.75c-12.68-9.18-27.81-15.16-44.23-16.76c-13.5-1.62-21.52-4.64-26.15-8.8
	c-4.19-3.76-5.63-8.56-5.94-14.16c3.59-0.23 6.83-1.75 9.25-4.11c2.67-2.61 4.35-6.23 4.4-10.26c0-0.32 0-0.63-0.02-0.91
	c-0.02-0.32-0.04-0.62-0.07-0.9l0 0c-0.07-0.64-0.61-1.15-1.28-1.16l-0.27-0.01v0l-0.01 0c-2.7-0.03-5.24 0.67-7.43 1.92
	c-0.33-1.01-0.77-1.96-1.3-2.86c-0.87-1.46-1.99-2.77-3.3-3.85c-0.49-0.4-1.19-0.39-1.66 0c-1.32 1.04-2.47 2.31-3.37 3.75
	c-0.55 0.89-1.02 1.83-1.37 2.83c-2.15-1.31-4.68-2.07-7.38-2.11h-0.02l-0.27 0c-0.66 0-1.21 0.49-1.3 1.13l0 0
	c-0.04 0.31-0.08 0.61-0.1 0.9h0c-0.02 0.26-0.03 0.57-0.04 0.92c-0.05 3.97 1.5 7.59 4.04 10.25l0 0c2.29 2.39 5.38 4.01 8.85 4.41
	c0.31 6.34 1.94 11.81 6.81 16.18c2.97 2.67 7.15 4.9 12.97 6.62c-13.52 0.89-26.24 4.74-37.51 10.91
	c-9.53 5.22-18.02 12.1-25.08 20.26c-3.42 0.17-6.77 1.14-9.76 2.84c-3.23 1.83-6.04 4.51-8.06 7.93c-2.02 3.42-3 7.18-3.04 10.9
	c-0.04 3.85 0.93 7.65 2.8 11l0 0c0.22 0.4 0.65 0.67 1.14 0.67c3.84 0.02 7.64-0.97 10.98-2.87c3.23-1.83 6.04-4.51 8.06-7.93
	c2.02-3.42 3-7.18 3.04-10.9c0.04-3.7-0.85-7.35-2.59-10.61c6.74-7.62 14.77-14.07 23.77-19c12.55-6.87 26.95-10.78 42.27-10.78
	c10.13 0 19.86 1.71 28.92 4.86c-7.53-0.27-15.46 1.39-22.79 4.92c-11.05 5.32-20.75 14.87-25.66 28.4l-0.1 0.28
	c-3.56-0.77-7.14-0.15-10.14 1.52c-3.26 1.82-5.83 4.87-6.94 8.75c-0.08 0.29-0.16 0.59-0.22 0.89c-0.05 0.24-0.1 0.52-0.16 0.85
	c-0.12 0.65 0.27 1.31 0.92 1.5l0.01 0v0c0.17 0.05 0.16 0.05 0.25 0.08c2.6 0.74 5.23 0.73 7.67 0.09c0.06 1.06 0.23 2.1 0.51 3.1
	c0.45 1.64 1.19 3.19 2.18 4.58c0.38 0.53 1.07 0.69 1.63 0.42c1.55-0.66 2.97-1.58 4.2-2.71c0.77-0.71 1.46-1.5 2.06-2.37
	c1.74 1.83 3.97 3.23 6.57 3.97l0.02 0v0l0.26 0.07c0.68 0.18 1.38-0.2 1.59-0.86c0.11-0.26 0.21-0.51 0.29-0.74
	c0.1-0.3 0.2-0.59 0.28-0.87c1.09-3.82 0.55-7.72-1.22-10.96c-1.56-2.87-4.08-5.21-7.26-6.52l0.06-0.17
	c4.65-12.83 13.85-21.89 24.33-26.93c16.88-8.13 33.22-3.96 44.35 4.55c6.16 4.46 11.72 9.7 16.53 15.56
	c-4.18-2.37-9.18-4.19-14.7-4.89c-6.88-0.87-14.55 0-22.45 3.71c-3.05 1.44-6.25 3.54-9.26 5.94c-2.5-0.4-5.07-0.16-7.45 0.69
	c-2.4 0.86-4.62 2.34-6.39 4.42c-1.77 2.08-2.89 4.51-3.35 7.02c-0.48 2.6-0.28 5.28 0.6 7.77h0c0.15 0.43 0.52 0.77 1 0.86
	c2.6 0.47 5.29 0.25 7.78-0.64c2.4-0.86 4.62-2.34 6.39-4.42c1.77-2.08 2.89-4.51 3.35-7.02c0.41-2.21 0.32-4.49-0.26-6.66
	c2.85-2.27 5.86-4.25 8.71-5.59c7.4-3.49 14.58-4.3 21-3.49c18.74 2.37 25.14 13.97 30.62 30.66c0.19 0.57 0.73 0.93 1.31 0.9h0
	l47.3-0.38c0.72-0.01 1.3-0.6 1.3-1.32C313.23 151.87 312.64 151.29 311.92 151.29z M232.17 79.58c0.02-2.21 0.61-4.44 1.82-6.48
	c1.21-2.04 2.88-3.64 4.8-4.73c1.77-1 3.75-1.58 5.77-1.69c0.89 1.83 1.34 3.84 1.32 5.88c-0.02 2.21-0.61 4.44-1.82 6.48
	c-1.21 2.04-2.88 3.64-4.8 4.73c-1.37 0.78-2.86 1.3-4.4 1.54c0.49-0.91 1.14-2.03 1.81-3.17c1.31-2.2 2.72-4.42 3.39-5.27
	c0.44-0.57 0.34-1.39-0.23-1.84c-0.57-0.44-1.39-0.34-1.84 0.23c-0.75 0.96-2.23 3.28-3.58 5.55c-0.59 0.99-1.16 1.98-1.64 2.85
	C232.36 82.34 232.15 80.97 232.17 79.58z M153.84 62.57l0 0.02l0 0.02l0 0.01l-0.02 0.13l0 0.02l0 0.02v0l0 0.02l-0.01 0.11l0 0.03
	l0 0.02l0 0l0 0.03l0 0.03l0 0.03l-0.01 0.05l0 0.03l0 0.02l0 0l0 0.03c-0.01 0.1-0.02 0.2-0.03 0.29l0 0.03l0 0.02l0 0.01l0 0.03
	l0 0.03l-0.01 0.08l0 0.03l0 0.02l0 0.01l0 0.03l0 0.03l0 0.03l0 0.03l0 0.03l0 0.04l0 0.01l-0.01 0.14l0 0.03l0 0.01v0.02l0 0.03
	l0 0.03l0 0.03l0 0.03l0 0.03l0 0.03v0.01l0 0.02l0 0.03l0 0.03l0 0.03l0 0.03l0 0.03l0 0.03l0 0l0 0.02l0 0.06l0 0.03l0 0.08
	l0 0.01v0.01v0.03v0.01l0 0.04v0.02v0.04v0.01v0.01v0.01v0.01c-2.67-0.41-5.05-1.7-6.83-3.56l0 0l0 0
	c-2.09-2.18-3.36-5.16-3.32-8.42c0-0.1 0-0.2 0.01-0.31c2.39 0.22 4.58 1.14 6.36 2.56c0.03 0.02 0.06 0.05 0.09 0.07l0.05 0.04
	l0.02 0.01l0.03 0.03l0.05 0.04l0.01 0.01l0.03 0.03l0.05 0.04l0.01 0.01l0.04 0.03l0.05 0.04l0.01 0.01l0.04 0.04l0.05 0.04l0 0
	l0 0l0.17 0.16l0 0c1.6 1.49 2.79 3.41 3.39 5.57l0.01 0.03L154 61.4l0.01 0.02l0.01 0.04l0.02 0.06l0 0.02
	C153.96 61.87 153.89 62.22 153.84 62.57z M155.42 57.87c-0.73-1.43-1.7-2.73-2.84-3.84l-0.04-0.04l-0.09-0.09l-0.05-0.04
	l-0.05-0.04l-0.05-0.04l-0.04-0.04l-0.01-0.01l-0.05-0.04c0.31-1.11 0.77-2.15 1.37-3.1c0.55-0.88 1.21-1.68 1.96-2.38
	c0.73 0.72 1.37 1.54 1.9 2.43c0.57 0.97 1.01 2.02 1.29 3.13c-1.02 0.88-1.92 1.9-2.66 3.02C155.84 57.14 155.62 57.5 155.42 57.87
	z M156.28 64.89L156.28 64.89L156.28 64.89L156.28 64.89l0-0.04v0v0v-0.01v0v0v-0.01v0v0v0v0v0v0V64.8v-0.01v0l0 0v-0.01v0v0v-0.01
	v0v0v-0.01v0l0 0v0v0v0v0v0v-0.01v0v0v0v0h0v-0.01v0l0 0v0V64.7l0 0v0v-0.01v-0.01v-0.01l0-0.02v-0.02l0-0.02l0-0.04v-0.02l0-0.02v0
	l0-0.02l0-0.02l0-0.04l0-0.02l0-0.02l0-0.02v0l0-0.02l0-0.02l0-0.02l0-0.02l0-0.02l0-0.02l0-0.07v0l0-0.02l0-0.02l0-0.02l0-0.02
	l0-0.07l0-0.02l0-0.02c0.02-0.24 0.04-0.47 0.07-0.71c0.06-0.46 0.15-0.92 0.27-1.39l0.01-0.04c0.33-1.3 0.88-2.51 1.6-3.59
	c0.43-0.65 0.92-1.25 1.46-1.8l0.04-0.04l0.04-0.04l0.04-0.04l0.04-0.04l0.04-0.04l0.09-0.09l0.05-0.04l0 0l0.04-0.04l0.05-0.04l0 0
	l0.04-0.04l0.05-0.04l0.01-0.01l0.04-0.04l0.05-0.04l0.01-0.01l0.04-0.03l0.05-0.04l0.01-0.01l0.03-0.03l0.05-0.04l0.02-0.02
	l0.03-0.02l0.05-0.04l0.02-0.02l0.03-0.02l0.05-0.04l0.03-0.02l0.02-0.02l0.05-0.04l0.03-0.02l0.02-0.01l0.05-0.04l0.03-0.03
	l0.02-0.01c1.82-1.39 4.05-2.27 6.46-2.43c0 0.11 0 0.21 0 0.31c-0.04 3.3-1.42 6.28-3.61 8.42c-1.98 1.93-4.63 3.18-7.56 3.38
	L156.28 64.89z M110.84 142.7c-1.78 3.02-4.25 5.38-7.09 6.99c-2.72 1.54-5.78 2.41-8.9 2.52c-1.42-2.79-2.15-5.89-2.11-9.02
	c0.04-3.26 0.9-6.56 2.68-9.58c1.78-3.02 4.25-5.38 7.09-6.99c1.89-1.07 3.94-1.81 6.05-2.2c-1.95 2.44-3.77 4.99-5.46 7.63
	c-0.85 1.32-1.65 2.65-2.41 3.98c-0.77 1.35-1.5 2.71-2.19 4.09c-0.33 0.64-0.07 1.43 0.58 1.76c0.65 0.33 1.43 0.07 1.76-0.58
	c0.68-1.35 1.39-2.68 2.13-3.98c0.76-1.33 1.54-2.62 2.33-3.87c1.95-3.05 4.09-5.98 6.39-8.76c1.23 2.63 1.85 5.52 1.82 8.42
	C113.49 136.38 112.62 139.68 110.84 142.7z M152.14 141.88c-2.1 0.85-4.46 1.1-6.82 0.62c0.03-0.1 0.05-0.2 0.08-0.3
	c0.91-3.18 3.01-5.69 5.69-7.18c2.42-1.34 5.3-1.85 8.18-1.27l0 0l0 0.01l0 0.01l0 0.01l0 0.01l0 0.01l0 0.01L159.2 134l0 0.01
	l0 0.01l0 0.01l0 0.01l0 0.01l-0.04 0.15l0 0l-0.01 0.02l-0.02 0.06l-0.01 0.02l-0.01 0.02l0 0.01l0 0.01l-0.01 0.02l-0.03 0.09
	l-0.01 0.02l0 0.01c-0.52 1.59-1.34 3-2.39 4.19c-0.33 0.38-0.69 0.73-1.07 1.07c-1.01 0.89-2.16 1.6-3.39 2.1L152.14 141.88z
	 M158.1 148.35c-0.76 0.7-1.61 1.31-2.52 1.79c-0.52-0.89-0.92-1.85-1.2-2.84c-0.3-1.08-0.44-2.2-0.43-3.36
	c1.22-0.58 2.35-1.33 3.36-2.22c0.31-0.28 0.62-0.57 0.91-0.87c0.08 0.38 0.18 0.76 0.29 1.13l0 0l0 0
	c0.01 0.03 0.01 0.05 0.02 0.08c0.39 1.29 0.96 2.53 1.69 3.66C159.65 146.71 158.92 147.59 158.1 148.35z M167.43 139.77
	c1.44 2.65 1.88 5.85 0.99 8.99c-0.03 0.1-0.06 0.2-0.09 0.3c-2.27-0.84-4.15-2.32-5.5-4.17l-0.01-0.02l-0.02-0.03l-0.04-0.05
	l-0.01-0.01l-0.03-0.04l-0.04-0.05l-0.01-0.01l-0.03-0.04l-0.04-0.05l0 0l-0.03-0.05l-0.03-0.05l0 0l-0.03-0.05l-0.03-0.05l0-0.01
	l-0.03-0.05l-0.03-0.04l-0.01-0.01l-0.03-0.05l-0.02-0.04l-0.01-0.02l-0.03-0.05l-0.02-0.03l-0.01-0.02l-0.03-0.05
	c-0.5-0.84-0.9-1.75-1.19-2.69l-0.02-0.07l0 0v0l0 0c-0.34-1.14-0.51-2.35-0.49-3.57c0.36-0.66 0.66-1.36 0.92-2.1l0.01-0.03
	l0.04-0.13l0.01-0.03l0.01-0.03l0.01-0.03l0.01-0.03l0.01-0.03l0.01-0.03l0.01-0.03l0.01-0.03l0.01-0.03l0.01-0.03l0.02-0.05
	l0.01-0.03l0.01-0.03l0.01-0.03l0.01-0.03l0.01-0.03l0.01-0.03l0 0l0.01-0.02l0.03-0.1l0.01-0.03l0.01-0.03l0.05-0.19l0-0.01l0-0.01
	l0-0.01l0 0C164.24 135.64 166.2 137.51 167.43 139.77z M200.69 137.99c-0.39 2.07-1.3 4.07-2.77 5.79
	c-1.47 1.72-3.3 2.94-5.29 3.65c-1.82 0.65-3.76 0.87-5.66 0.65c-0.52-1.85-0.61-3.8-0.26-5.7c0.38-2.07 1.3-4.07 2.77-5.79
	c1.47-1.72 3.3-2.94 5.29-3.65c1.19-0.42 2.43-0.67 3.68-0.72c-2.75 2.47-5.24 5.11-7.15 7.6c-0.44 0.57-0.34 1.39 0.23 1.84
	c0.57 0.44 1.4 0.34 1.84-0.24c1.94-2.52 4.51-5.22 7.37-7.73C200.96 135.12 200.95 136.57 200.69 137.99z" fill="black" data-uid="o_f7ii3m2de_47"></path><path class="st5" d="M140.23 92.48c2.04 0.37 4.15 0.21 6.1-0.48c1.89-0.67 3.63-1.82 5.03-3.45c1.4-1.63 2.27-3.53 2.65-5.5
	c0.38-2 0.23-4.08-0.42-6.01c-0.05-0.2-0.16-0.39-0.31-0.56c-0.21-0.23-0.48-0.36-0.77-0.4c-2.02-0.36-4.12-0.19-6.05 0.49
	c-1.89 0.67-3.63 1.82-5.03 3.45c-1.4 1.63-2.27 3.53-2.65 5.5c-0.38 2.01-0.23 4.09 0.43 6.03
	C139.34 92.01 139.72 92.39 140.23 92.48z M141.35 86c0.29-1.53 0.97-3.01 2.06-4.27c1.09-1.27 2.44-2.17 3.91-2.68
	c0.63-0.22 1.29-0.38 1.95-0.46c-3.34 3.59-5.21 6.68-5.22 6.69c-0.37 0.62-0.17 1.42 0.45 1.79c0.62 0.37 1.42 0.17 1.79-0.45
	c0.01-0.01 1.87-3.09 5.25-6.63c0.08 0.86 0.04 1.73-0.12 2.58c-0.29 1.53-0.97 3.01-2.06 4.28c-1.09 1.27-2.44 2.16-3.91 2.68
	c-1.28 0.45-2.64 0.62-3.98 0.49C141.14 88.71 141.1 87.33 141.35 86z" fill="black" data-uid="o_f7ii3m2de_48"></path><path class="st5" d="M177.41 123.29c-1.74-1.12-3.75-1.77-5.82-1.88v0c-0.18-0.01-0.36 0.02-0.54 0.09
	c-0.29 0.11-0.52 0.32-0.66 0.57c-1.1 1.74-1.72 3.74-1.82 5.79c-0.09 2 0.32 4.05 1.3 5.95c0.98 1.91 2.41 3.43 4.1 4.52
	c1.74 1.12 3.75 1.77 5.82 1.88v0c0.45 0.02 0.91-0.19 1.17-0.6c1.11-1.75 1.75-3.77 1.85-5.84c0.09-2-0.32-4.05-1.3-5.95
	C180.52 125.9 179.09 124.38 177.41 123.29z M179.14 137.52c-1.34-0.18-2.62-0.66-3.77-1.39c-1.31-0.84-2.42-2.03-3.18-3.52
	c-0.77-1.49-1.09-3.08-1.02-4.64c0.03-0.67 0.14-1.33 0.31-1.98c2.06 4.45 4.21 7.33 4.22 7.34c0.43 0.58 1.25 0.71 1.83 0.28
	c0.58-0.43 0.71-1.25 0.28-1.83c-0.01-0.01-2.17-2.91-4.18-7.37c0.83 0.25 1.62 0.61 2.35 1.09c1.31 0.84 2.42 2.03 3.18 3.52
	c0.77 1.49 1.09 3.08 1.02 4.64C180.13 135 179.77 136.32 179.14 137.52z" fill="black" data-uid="o_f7ii3m2de_49"></path><path class="st5" d="M158 96.28c-1.99 0.26-3.93 1.03-5.64 2.33c-1.7 1.3-2.96 2.98-3.73 4.83c-0.79 1.88-1.07 3.95-0.83 5.98
	c0.02 0.3 0.14 0.59 0.36 0.82c0.15 0.15 0.32 0.26 0.5 0.33c1.9 0.77 3.98 1.04 6.01 0.77c1.99-0.26 3.93-1.03 5.64-2.33
	c1.7-1.3 2.96-2.98 3.73-4.83c0.8-1.91 1.08-4 0.82-6.06c-0.06-0.49-0.38-0.88-0.8-1.05l0 0C162.15 96.29 160.05 96.01 158 96.28z
	 M161.62 103.18c-0.6 1.44-1.57 2.74-2.9 3.75c-1.33 1.02-2.84 1.62-4.38 1.82c-0.86 0.11-1.73 0.1-2.59-0.02
	c3.72-3.17 6.92-4.87 6.93-4.87c0.64-0.34 0.88-1.14 0.53-1.77c-0.34-0.64-1.14-0.88-1.77-0.53c-0.01 0.01-3.19 1.69-6.96 4.83
	c0.12-0.66 0.31-1.3 0.57-1.92c0.6-1.44 1.57-2.74 2.9-3.75c1.33-1.02 2.84-1.62 4.38-1.82c1.34-0.18 2.71-0.06 4 0.35
	C162.39 100.57 162.14 101.93 161.62 103.18z" fill="black" data-uid="o_f7ii3m2de_50"></path><path class="st5" d="M87.03 151.29l-40.33 0.38c-0.72 0.01-1.3 0.6-1.3 1.32c0.01 0.72 0.6 1.3 1.32 1.3l40.33-0.38
	c0.72-0.01 1.3-0.6 1.3-1.32C88.34 151.87 87.75 151.29 87.03 151.29z" fill="black" data-uid="o_f7ii3m2de_51"></path><path class="st5" d="M93.46 109.45c2.27 2.12 5.11 3.69 8.34 4.44c3.22 0.75 6.43 0.6 9.38-0.28l0.07-0.02
	c3.07-0.93 5.86-2.65 8.07-5l0 0l0.03-0.03l0.01-0.01l0 0l0.01-0.02l0 0l0.01-0.01l0.01-0.01l0 0l0.01-0.02l0 0l0.01-0.01l0.01-0.01
	l0 0l0.01-0.02l0-0.01l0.01-0.01l0.01-0.01l0 0l0.01-0.02l0-0.01l0.01-0.01l0.01-0.02l0 0l0.01-0.02l0-0.01l0.01-0.01l0.01-0.02v0
	l0.01-0.03l0-0.01l0.01-0.02l0 0l0.01-0.02l0.01-0.01l0.02-0.06l0 0l0.01-0.02l0-0.01c0.01-0.04 0.02-0.09 0.03-0.13l0-0.01
	l0.01-0.06l0 0l0-0.02l0-0.01l0-0.01l0-0.02l0 0l0-0.02l0-0.01l0-0.03v0c0-0.04 0-0.08 0-0.13v0l0-0.02l0-0.01l-0.01-0.06l0 0
	l0-0.03l0-0.01l0-0.02l0 0l-0.01-0.06v0l-0.01-0.02l0-0.01l0-0.02l0-0.01l-0.01-0.03l0 0l-0.01-0.02c-0.95-3.07-2.69-5.85-5.04-8.05
	c-2.27-2.12-5.11-3.69-8.34-4.44c-3.24-0.75-6.48-0.6-9.45 0.3v0c-3.08 0.93-5.87 2.66-8.07 5h0c-0.31 0.33-0.44 0.82-0.3 1.28
	C89.37 104.48 91.11 107.26 93.46 109.45z M97.55 97.64L97.55 97.64L97.55 97.64c2.55-0.77 5.33-0.9 8.1-0.26
	c2.78 0.65 5.21 1.99 7.16 3.8c1.36 1.26 2.47 2.76 3.31 4.4c-8.51-2.6-15.27-3.03-15.29-3.03c-0.72-0.04-1.34 0.5-1.39 1.23
	c-0.04 0.72 0.5 1.34 1.23 1.39c0.02 0 6.76 0.43 15.2 3.07c-1.58 1.28-3.4 2.24-5.36 2.83l-0.06 0.02
	c-2.53 0.75-5.29 0.88-8.04 0.24c-2.78-0.65-5.21-1.99-7.15-3.8c-1.83-1.7-3.22-3.82-4.07-6.16C92.97 99.64 95.16 98.36 97.55 97.64
	z" fill="black" data-uid="o_f7ii3m2de_52"></path><path class="st5" d="M132.62 121.72c-2.01-1.51-4.39-2.48-6.89-2.78v0l-0.02 0l0 0l-0.02 0l-0.02 0h-0.01l-0.02 0
	c-0.09-0.01-0.18 0-0.27 0.01l-0.02 0l-0.02 0l-0.06 0.01l-0.01 0l-0.01 0l-0.02 0.01l-0.04 0.01l0 0l-0.02 0.01l-0.02 0.01
	l-0.02 0.01h0l-0.02 0.01l-0.01 0.01l-0.01 0l-0.02 0.01l0 0l-0.02 0.01c-0.04 0.02-0.08 0.04-0.11 0.06l-0.02 0.01l0 0l-0.02 0.01
	l-0.01 0l-0.01 0.01l-0.02 0.01l-0.02 0.01l-0.01 0c-0.06 0.04-0.11 0.08-0.16 0.13l-0.01 0.01l-0.01 0.01l-0.02 0.01v0l-0.02 0.02
	l-0.01 0.02l-0.01 0.01l0 0l-0.01 0.02l0 0l-0.01 0.01l-0.01 0.02l-0.01 0.02h0l-0.01 0.02l-0.01 0.01l-0.01 0.01
	c-1.49 2.02-2.44 4.4-2.73 6.88c-0.28 2.41 0.04 4.93 1.06 7.32c1.02 2.39 2.62 4.36 4.57 5.82c2.01 1.51 4.39 2.48 6.89 2.78v0
	c0.45 0.05 0.92-0.13 1.21-0.52c1.5-2.02 2.45-4.41 2.74-6.9c0.28-2.41-0.04-4.93-1.06-7.32
	C136.16 125.15 134.56 123.18 132.62 121.72z M135.64 134.55c-0.21 1.79-0.83 3.5-1.8 5c-1.76-0.34-3.43-1.07-4.87-2.15
	c-1.58-1.19-2.89-2.8-3.73-4.76c-0.84-1.95-1.1-4.01-0.87-5.99c0.13-1.13 0.43-2.23 0.87-3.27c2.21 6.07 4.82 10.14 4.83 10.16
	c0.39 0.61 1.19 0.8 1.81 0.41c0.61-0.39 0.79-1.19 0.41-1.81c-0.01-0.01-2.62-4.09-4.77-10.16c1.26 0.4 2.45 1.01 3.51 1.81
	c1.58 1.19 2.89 2.8 3.73 4.76C135.61 130.52 135.88 132.58 135.64 134.55z" fill="black" data-uid="o_f7ii3m2de_53"></path><path class="st6" d="M270.21 261.07c-0.95-3.07-2.69-5.85-5.04-8.05c-2.27-2.12-5.11-3.69-8.35-4.44c-3.22-0.75-6.43-0.6-9.38 0.28
	l-0.07 0.02c-3.07 0.93-5.86 2.66-8.07 5l-0.03 0.03l-0.01 0.01l0 0l-0.01 0.01l0 0l-0.01 0.01l-0.01 0.01l0 0l-0.01 0.02l0 0
	l-0.01 0.01l-0.01 0.01l0 0l-0.01 0.02l0 0l-0.01 0.01l-0.01 0.01l0 0l-0.01 0.02l0 0.01l-0.01 0.01l-0.01 0.02v0l-0.01 0.02l0 0.01
	l0 0.01l-0.01 0.02l-0.01 0.03l0 0.01l-0.01 0.02v0l-0.01 0.02l-0.01 0.01l-0.02 0.06l0 0l-0.01 0.02l0 0.01
	c-0.01 0.04-0.02 0.09-0.03 0.13l0 0l-0.01 0.06v0l0 0.02v0.01l0 0.01l0 0.02v0l0 0.02l0 0.01l0 0.03v0c0 0.04 0 0.08 0 0.13v0
	l0 0.02l0 0.01l0 0.06v0l0 0.03l0 0.01l0 0.02v0l0.01 0.06v0l0.01 0.02l0 0.01l0 0.02l0 0.01l0.01 0.03l0 0l0.01 0.02
	c0.95 3.07 2.69 5.85 5.04 8.05c2.27 2.12 5.11 3.69 8.35 4.44c3.24 0.76 6.48 0.6 9.45-0.3v0c3.08-0.93 5.87-2.66 8.07-4.99v0
	C270.23 262.02 270.35 261.54 270.21 261.07z M261.09 264.84L261.09 264.84L261.09 264.84c-2.55 0.77-5.33 0.9-8.1 0.26
	c-2.78-0.65-5.21-1.99-7.16-3.8c-1.36-1.26-2.47-2.76-3.31-4.4c8.51 2.6 15.27 3.03 15.29 3.03c0.72 0.04 1.34-0.5 1.39-1.23
	c0.04-0.72-0.5-1.34-1.23-1.39c-0.02 0-6.76-0.43-15.2-3.07c1.58-1.28 3.4-2.24 5.36-2.83l0.05-0.02c2.53-0.75 5.29-0.88 8.04-0.24
	c2.78 0.65 5.21 1.99 7.16 3.81c1.83 1.7 3.22 3.82 4.07 6.16C265.67 262.83 263.48 264.12 261.09 264.84z" fill="rgba(72,150,23,1)" data-uid="o_f7ii3m2de_54"></path><path class="st6" d="M181.23 239.19c1.74 1.12 3.75 1.77 5.82 1.88c0.18 0.01 0.36-0.02 0.54-0.09c0.29-0.11 0.52-0.32 0.66-0.57
	c1.09-1.74 1.72-3.74 1.82-5.79c0.09-2-0.32-4.05-1.3-5.95c-0.98-1.91-2.41-3.43-4.1-4.52c-1.74-1.12-3.75-1.77-5.82-1.88v0
	c-0.45-0.02-0.91 0.19-1.17 0.6c-1.11 1.75-1.75 3.77-1.85 5.84c-0.09 2 0.32 4.05 1.3 5.95
	C178.12 236.58 179.55 238.1 181.23 239.19z M179.49 224.96c1.34 0.18 2.62 0.66 3.76 1.39c1.31 0.84 2.42 2.03 3.18 3.52
	c0.76 1.49 1.09 3.08 1.02 4.64c-0.03 0.67-0.13 1.33-0.31 1.98c-2.06-4.45-4.21-7.33-4.22-7.34c-0.43-0.58-1.25-0.71-1.83-0.28
	c-0.58 0.43-0.71 1.25-0.28 1.83c0.01 0.01 2.17 2.91 4.18 7.37c-0.83-0.25-1.62-0.61-2.35-1.09c-1.31-0.84-2.42-2.03-3.18-3.52
	c-0.77-1.49-1.09-3.08-1.02-4.64C178.51 227.48 178.87 226.15 179.49 224.96z" fill="rgba(72,150,23,1)" data-uid="o_f7ii3m2de_55"></path><path class="st6" d="M247.66 240.97c3.42-0.17 6.77-1.14 9.76-2.84c3.23-1.83 6.04-4.51 8.06-7.93c2.02-3.42 3-7.18 3.04-10.9
	c0.04-3.85-0.93-7.65-2.8-11l0 0c-0.22-0.4-0.65-0.67-1.14-0.67c-3.84-0.02-7.64 0.97-10.98 2.87c-3.23 1.83-6.04 4.51-8.06 7.93
	c-2.02 3.43-3 7.18-3.04 10.9c-0.04 3.7 0.85 7.35 2.59 10.61c-6.74 7.62-14.78 14.07-23.77 19c-12.55 6.87-26.95 10.78-42.27 10.78
	c-10.13 0-19.86-1.71-28.92-4.86c7.53 0.27 15.46-1.39 22.79-4.92c11.05-5.32 20.75-14.87 25.65-28.4l0.1-0.28
	c3.56 0.76 7.14 0.15 10.14-1.52c3.26-1.82 5.83-4.88 6.94-8.75c0.08-0.29 0.16-0.59 0.22-0.89c0.05-0.24 0.1-0.53 0.16-0.85
	c0.12-0.66-0.27-1.31-0.92-1.5l-0.01 0c-0.17-0.05-0.17-0.05-0.25-0.08c-2.6-0.74-5.23-0.73-7.67-0.09c-0.06-1.06-0.23-2.1-0.51-3.1
	c-0.45-1.64-1.19-3.2-2.18-4.58c-0.37-0.53-1.07-0.69-1.63-0.42c-1.55 0.66-2.97 1.58-4.2 2.71c-0.77 0.71-1.46 1.5-2.07 2.37
	c-1.74-1.83-3.97-3.23-6.57-3.97l-0.02 0v0l-0.26-0.07c-0.68-0.18-1.38 0.2-1.59 0.86c-0.11 0.26-0.21 0.51-0.29 0.74
	c-0.1 0.29-0.2 0.59-0.28 0.87c-1.09 3.82-0.55 7.72 1.21 10.96c1.56 2.87 4.08 5.21 7.26 6.52l-0.06 0.17
	c-4.65 12.83-13.85 21.89-24.33 26.93c-16.88 8.13-33.22 3.96-44.35-4.55c-6.16-4.46-11.72-9.7-16.53-15.56
	c4.18 2.37 9.18 4.19 14.7 4.89c6.87 0.87 14.55 0 22.44-3.71c3.05-1.44 6.25-3.54 9.26-5.94c2.5 0.4 5.07 0.16 7.45-0.69
	c2.4-0.86 4.62-2.34 6.39-4.42c1.77-2.08 2.89-4.51 3.35-7.02c0.48-2.6 0.28-5.28-0.6-7.77h0c-0.15-0.43-0.52-0.77-1-0.86
	c-2.6-0.47-5.29-0.25-7.78 0.64c-2.4 0.86-4.62 2.34-6.39 4.42c-1.77 2.08-2.89 4.51-3.35 7.02c-0.41 2.21-0.32 4.49 0.26 6.66
	c-2.85 2.27-5.86 4.25-8.71 5.59c-7.4 3.49-14.58 4.3-21 3.49c-18.74-2.37-25.14-13.97-30.62-30.66c-0.22-0.69-0.96-1.06-1.65-0.84
	c-0.69 0.22-1.07 0.96-0.84 1.65c4.21 12.82 11.19 24.38 20.25 33.97c5.63 6.18 9.41 11.92 11.32 17.23
	c1.73 4.79 1.93 9.22 0.62 13.3c-2.42 0.13-4.8 0.83-6.91 2.03c-2.31 1.31-4.32 3.23-5.77 5.68c-1.44 2.45-2.15 5.14-2.18 7.8
	c-0.03 2.75 0.66 5.47 2 7.87l0 0c0.22 0.4 0.65 0.67 1.14 0.67c2.75 0.01 5.47-0.69 7.86-2.05c2.31-1.31 4.32-3.22 5.77-5.67
	c1.44-2.45 2.15-5.14 2.18-7.8c0.03-2.55-0.56-5.07-1.72-7.33c1.63-4.74 1.46-9.86-0.53-15.36c-0.8-2.21-1.89-4.49-3.28-6.83
	c0.77 0.6 1.55 1.18 2.34 1.75c12.68 9.18 27.81 15.16 44.23 16.76c13.5 1.62 21.52 4.64 26.15 8.8c4.19 3.76 5.63 8.56 5.94 14.16
	c-3.59 0.22-6.83 1.75-9.25 4.11c-2.67 2.61-4.35 6.23-4.4 10.26c0 0.32 0 0.63 0.02 0.91c0.02 0.32 0.04 0.62 0.07 0.9h0
	c0.07 0.64 0.61 1.15 1.27 1.17l0.27 0.01h0.01c2.7 0.03 5.24-0.67 7.43-1.92c0.33 1.01 0.77 1.97 1.3 2.86
	c0.87 1.46 1.99 2.76 3.3 3.85c0.49 0.4 1.19 0.39 1.66 0c1.33-1.04 2.47-2.31 3.37-3.75c0.55-0.88 1.02-1.83 1.37-2.83
	c2.15 1.31 4.68 2.07 7.38 2.11h0.01h0.27c0.66 0 1.21-0.49 1.3-1.13h0c0.04-0.31 0.07-0.61 0.1-0.9c0.02-0.26 0.03-0.57 0.04-0.92
	c0.05-3.97-1.5-7.59-4.04-10.25l0 0c-2.29-2.39-5.38-4.01-8.85-4.41c-0.31-6.34-1.94-11.81-6.81-16.18
	c-2.97-2.67-7.15-4.9-12.97-6.62c13.52-0.89 26.24-4.74 37.51-10.91C232.11 256.02 240.6 249.13 247.66 240.97z M247.8 219.77
	c1.78-3.02 4.25-5.38 7.09-6.99c2.72-1.55 5.78-2.41 8.9-2.52c1.42 2.79 2.15 5.89 2.11 9.02c-0.04 3.26-0.9 6.56-2.68 9.58
	c-1.78 3.02-4.25 5.38-7.1 6.99c-1.88 1.07-3.94 1.81-6.05 2.2c1.95-2.44 3.77-4.99 5.46-7.63c0.85-1.32 1.65-2.65 2.41-3.98
	c0.77-1.35 1.5-2.71 2.19-4.09c0.33-0.65 0.07-1.43-0.58-1.76c-0.64-0.33-1.43-0.07-1.76 0.58c-0.68 1.35-1.39 2.68-2.13 3.97
	c-0.76 1.33-1.54 2.62-2.33 3.87c-1.95 3.05-4.09 5.98-6.39 8.76c-1.23-2.63-1.85-5.51-1.82-8.42
	C245.15 226.1 246.02 222.8 247.8 219.77z M206.5 220.6c2.1-0.84 4.46-1.1 6.82-0.62c-0.03 0.1-0.05 0.2-0.08 0.3
	c-0.91 3.18-3.01 5.69-5.69 7.18c-2.42 1.34-5.3 1.86-8.18 1.27l0 0l0-0.01l0-0.01l0-0.01l0-0.01l0-0.01l0-0.01l0.05-0.18l0-0.01
	l0-0.01l0-0.01l0-0.01l0-0.01l0.04-0.15v0l0.01-0.02l0.02-0.06l0.01-0.02l0.01-0.02l0-0.01l0-0.01l0.01-0.02l0.03-0.09l0.01-0.02
	l0-0.01c0.52-1.59 1.34-3 2.39-4.19c0.33-0.38 0.69-0.73 1.07-1.07c1.01-0.89 2.16-1.6 3.39-2.1L206.5 220.6z M200.53 214.13
	c0.76-0.7 1.61-1.31 2.52-1.79c0.52 0.89 0.92 1.85 1.2 2.84c0.3 1.08 0.44 2.2 0.43 3.35c-1.22 0.58-2.35 1.33-3.36 2.22
	c-0.31 0.28-0.62 0.57-0.91 0.87c-0.08-0.38-0.17-0.76-0.29-1.13v0l0 0c-0.01-0.03-0.01-0.05-0.02-0.08
	c-0.39-1.29-0.96-2.53-1.69-3.66C198.99 215.77 199.71 214.89 200.53 214.13z M191.21 222.7c-1.44-2.65-1.88-5.85-0.99-8.99
	c0.03-0.1 0.06-0.2 0.09-0.3c2.27 0.84 4.15 2.32 5.5 4.17l0.01 0.02l0.02 0.03l0.04 0.05l0.01 0.01l0.03 0.04l0.04 0.05l0.01 0.01
	l0.03 0.04l0.04 0.05l0 0l0.03 0.05l0.03 0.05v0l0.03 0.05l0.03 0.05l0 0.01l0.03 0.05l0.03 0.04l0.01 0.01l0.03 0.05l0.02 0.04
	l0.01 0.02l0.03 0.05l0.02 0.03l0.01 0.02l0.03 0.05c0.5 0.84 0.9 1.75 1.19 2.69l0.02 0.06l0 0v0l0 0l0 0
	c0.34 1.14 0.51 2.35 0.49 3.57c-0.35 0.66-0.66 1.36-0.92 2.1l-0.01 0.03l-0.04 0.13l-0.01 0.03l-0.01 0.03l-0.01 0.02l-0.01 0.03
	l-0.01 0.03l-0.01 0.03l-0.01 0.03l-0.01 0.03l-0.01 0.03l-0.01 0.03l-0.02 0.05l-0.01 0.03l-0.01 0.03l-0.01 0.03l-0.01 0.03
	l-0.01 0.03l-0.01 0.03h0l-0.01 0.03l-0.03 0.1l-0.01 0.03l-0.01 0.03l-0.05 0.19l0 0.01l0 0.01l0 0.01l0 0
	C194.39 226.84 192.44 224.97 191.21 222.7z M157.95 224.49c0.38-2.07 1.3-4.07 2.77-5.79c1.47-1.72 3.3-2.94 5.29-3.65
	c1.82-0.65 3.76-0.87 5.66-0.65c0.52 1.85 0.61 3.8 0.26 5.7c-0.38 2.07-1.3 4.07-2.77 5.79c-1.47 1.72-3.3 2.94-5.29 3.65
	c-1.19 0.42-2.43 0.67-3.68 0.72c2.75-2.47 5.24-5.11 7.15-7.6c0.44-0.57 0.34-1.39-0.24-1.84c-0.57-0.44-1.39-0.34-1.84 0.23
	c-1.94 2.52-4.51 5.23-7.37 7.73C157.67 227.36 157.69 225.91 157.95 224.49z M126.47 282.9c-0.02 2.21-0.61 4.44-1.82 6.48
	c-1.21 2.04-2.88 3.64-4.8 4.73c-1.77 1-3.75 1.58-5.77 1.69c-0.89-1.83-1.34-3.85-1.32-5.88c0.02-2.21 0.61-4.44 1.82-6.49
	c1.21-2.04 2.88-3.64 4.8-4.73c1.37-0.77 2.86-1.3 4.4-1.55c-0.49 0.92-1.14 2.03-1.81 3.17c-1.31 2.2-2.72 4.42-3.39 5.27
	c-0.44 0.57-0.34 1.39 0.23 1.84c0.57 0.44 1.39 0.34 1.84-0.23c0.75-0.96 2.23-3.28 3.58-5.55c0.59-0.99 1.16-1.98 1.64-2.85
	C126.28 280.13 126.49 281.51 126.47 282.9z M204.8 299.91l0-0.02l0-0.02l0-0.01l0.02-0.13l0-0.02l0-0.02v0l0-0.02l0.01-0.11l0-0.03
	l0-0.02v0l0-0.03l0-0.03l0-0.03l0.01-0.05l0-0.03l0-0.02l0 0l0-0.03c0.01-0.1 0.02-0.19 0.03-0.29l0-0.03v-0.02l0-0.01l0-0.03
	l0-0.03l0.01-0.08l0-0.03l0-0.02l0-0.01l0-0.03l0-0.03l0-0.03l0-0.03l0-0.03l0-0.04l0-0.01l0.01-0.13l0-0.03v-0.01l0-0.02l0-0.03
	l0-0.03l0-0.03l0-0.03l0-0.03l0-0.03l0-0.01v-0.02v-0.03l0-0.03l0-0.03l0-0.03v-0.03v-0.03v0l0-0.02l0-0.05v-0.03l0-0.08v-0.01
	v-0.01v-0.03v-0.01l0-0.04v-0.01v-0.04v-0.01v-0.01v-0.01v-0.01c2.67 0.41 5.05 1.69 6.83 3.56l0 0l0 0
	c2.09 2.18 3.36 5.16 3.32 8.42c0 0.1 0 0.2-0.01 0.31c-2.39-0.22-4.58-1.14-6.36-2.55c-0.03-0.02-0.06-0.05-0.09-0.07l-0.05-0.04
	l-0.02-0.01l-0.03-0.03l-0.05-0.04l-0.01-0.01l-0.03-0.03l-0.05-0.04l-0.01-0.01l-0.04-0.03l-0.05-0.04l-0.01 0l-0.04-0.04
	l-0.05-0.04l0 0l0 0l-0.17-0.16l0 0c-1.6-1.49-2.79-3.41-3.39-5.57l-0.01-0.03l-0.02-0.06l-0.01-0.02l-0.01-0.04l-0.02-0.06l0-0.02
	C204.68 300.6 204.74 300.26 204.8 299.91z M203.21 304.61c0.73 1.43 1.7 2.73 2.84 3.84l0.05 0.04l0.09 0.09l0.05 0.04l0.05 0.04
	l0.05 0.04l0.04 0.04l0.01 0.01l0.05 0.04c-0.31 1.11-0.77 2.15-1.37 3.1c-0.55 0.88-1.21 1.68-1.96 2.38
	c-0.73-0.72-1.37-1.54-1.9-2.43c-0.57-0.97-1.01-2.02-1.3-3.13c1.02-0.88 1.92-1.9 2.66-3.02
	C202.8 305.34 203.01 304.98 203.21 304.61z M202.36 297.58L202.36 297.58L202.36 297.58v0.01v0.03v0v0v0v0v0v0.01v0v0v0v0v0v0v0.01
	v0v0v0v0v0v0v0v0v0v0v0v0v0v0v0v0v0v0v0v0v0v0v0v0v0v0v0v0v0l0 0.01v0.01v0.02v0.02v0.02v0.05l0 0.02v0.02v0l0 0.02l0 0.02l0 0.04
	v0.02l0 0.02l0 0.02v0l0 0.02l0 0.02v0.02l0 0.02l0 0.02l0 0.02l0 0.07l0 0.02l0 0.02v0.02l0 0.02l0 0.07l0 0.02l0 0.02
	c-0.02 0.24-0.04 0.47-0.07 0.71c-0.06 0.46-0.15 0.92-0.27 1.39l-0.01 0.04c-0.33 1.3-0.88 2.51-1.59 3.59
	c-0.43 0.65-0.92 1.25-1.46 1.8l-0.04 0.04l-0.04 0.04l-0.04 0.04l-0.04 0.04l-0.05 0.04l-0.09 0.09l-0.05 0.04l0 0l-0.04 0.04
	l-0.05 0.04l0 0l-0.04 0.04l-0.05 0.04l-0.01 0.01l-0.04 0.03l-0.05 0.04l-0.01 0.01l-0.04 0.03l-0.05 0.04l-0.01 0.01l-0.03 0.03
	l-0.05 0.04l-0.02 0.02l-0.03 0.03l-0.05 0.04l-0.02 0.02l-0.03 0.02l-0.05 0.04l-0.03 0.02l-0.02 0.02l-0.05 0.04l-0.03 0.02
	l-0.02 0.02l-0.05 0.04l-0.03 0.03l-0.01 0.01c-1.82 1.39-4.05 2.27-6.47 2.43c0-0.11 0-0.21 0-0.32c0.04-3.3 1.42-6.28 3.61-8.42
	c1.98-1.93 4.63-3.18 7.56-3.38L202.36 297.58z" fill="rgba(72,150,23,1)" data-uid="o_f7ii3m2de_56"></path><path class="st6" d="M226.02 240.76c2.01 1.51 4.39 2.48 6.89 2.78v0l0.02 0h0l0.02 0l0.01 0h0.01l0.02 0
	c0.09 0.01 0.18 0 0.27-0.01l0.02 0l0.02 0l0.06-0.01l0.01 0l0.01 0l0.02-0.01l0.04-0.01l0 0l0.02-0.01l0.02-0.01l0.02-0.01h0
	l0.02-0.01l0.01 0l0.01 0l0.02-0.01l0 0l0.02-0.01c0.04-0.02 0.08-0.04 0.12-0.06l0.02-0.01l0 0l0.02-0.01l0.01 0l0.01-0.01
	l0.02-0.01l0.02-0.01l0.01 0c0.06-0.04 0.11-0.09 0.16-0.13l0.01-0.01l0.01-0.01l0.02-0.02l0.01-0.01l0.02-0.02l0.01-0.01l0 0
	l0.01-0.02l0 0l0.01-0.01l0.01-0.02l0.01-0.02l0.01-0.02l0.01-0.01l0.01-0.01c1.49-2.02 2.44-4.4 2.73-6.88
	c0.28-2.41-0.04-4.93-1.06-7.32c-1.02-2.39-2.62-4.36-4.57-5.82c-2.01-1.51-4.39-2.48-6.89-2.79v0c-0.45-0.05-0.92 0.13-1.21 0.52
	c-1.5 2.02-2.45 4.41-2.74 6.9c-0.28 2.41 0.04 4.93 1.06 7.32C222.48 237.33 224.07 239.3 226.02 240.76z M222.99 227.93
	c0.21-1.79 0.83-3.5 1.8-5c1.76 0.34 3.43 1.07 4.87 2.15c1.58 1.19 2.89 2.8 3.72 4.76c0.84 1.96 1.1 4.01 0.87 5.99
	c-0.13 1.13-0.43 2.23-0.87 3.27c-2.21-6.07-4.82-10.14-4.83-10.16c-0.39-0.61-1.19-0.79-1.81-0.41c-0.61 0.39-0.8 1.19-0.41 1.81
	c0.01 0.01 2.62 4.09 4.77 10.16c-1.26-0.4-2.45-1.01-3.51-1.81c-1.58-1.19-2.89-2.8-3.72-4.76
	C223.02 231.96 222.76 229.9 222.99 227.93z" fill="rgba(72,150,23,1)" data-uid="o_f7ii3m2de_57"></path><path class="st6" d="M197.99 288.97c0.17-0.24 0.26-0.53 0.24-0.85c-0.01-0.23-0.09-0.44-0.2-0.62c-0.98-1.79-2.41-3.31-4.13-4.39
	c-1.69-1.06-3.69-1.7-5.83-1.78c-2.14-0.08-4.17 0.42-5.94 1.35c-1.83 0.97-3.39 2.4-4.5 4.16c-0.27 0.43-0.26 0.96-0.01 1.37
	c0.98 1.81 2.41 3.33 4.15 4.42c1.69 1.06 3.69 1.7 5.83 1.78c2.14 0.08 4.17-0.42 5.94-1.35
	C195.35 292.11 196.89 290.69 197.99 288.97z M187.68 291.8c-1.67-0.06-3.22-0.56-4.54-1.39c-1.15-0.72-2.13-1.68-2.86-2.81
	c0.81-1.07 1.86-1.96 3.06-2.6c1.38-0.73 2.96-1.12 4.63-1.05c1.66 0.06 3.22 0.56 4.54 1.39c0.74 0.46 1.4 1.02 1.98 1.66
	c-4.89 0.08-8.43-0.64-8.45-0.65c-0.71-0.14-1.4 0.33-1.54 1.04c-0.14 0.71 0.32 1.4 1.04 1.54c0.01 0 3.53 0.72 8.43 0.7
	c-0.51 0.43-1.06 0.81-1.66 1.12C190.93 291.48 189.35 291.86 187.68 291.8z" fill="rgba(72,150,23,1)" data-uid="o_f7ii3m2de_58"></path><path class="st6" d="M142.14 231.19c1.8 0.95 3.83 1.42 5.86 1.36c0.49 0.02 0.98-0.24 1.22-0.71c0.95-1.84 1.41-3.9 1.32-5.97
	c-0.08-2-0.68-4.01-1.82-5.82c-1.15-1.82-2.71-3.21-4.48-4.14c-1.8-0.95-3.83-1.42-5.87-1.36c-0.49-0.02-0.98 0.24-1.22 0.7
	c-0.95 1.84-1.41 3.9-1.32 5.97c0.08 2 0.68 4.01 1.82 5.82C138.81 228.86 140.37 230.26 142.14 231.19z M139.16 217.17
	c1.35 0.07 2.67 0.43 3.87 1.06c1.38 0.73 2.59 1.81 3.48 3.22c0.89 1.41 1.36 2.97 1.42 4.53c0.03 0.67-0.02 1.34-0.13 2
	c-2.45-4.24-4.85-6.93-4.86-6.94c-0.48-0.54-1.31-0.59-1.85-0.11c-0.54 0.48-0.59 1.31-0.11 1.85c0.01 0.01 2.42 2.7 4.81 6.97
	c-0.84-0.18-1.66-0.47-2.43-0.87c-1.38-0.73-2.59-1.81-3.48-3.22c-0.89-1.41-1.36-2.97-1.42-4.53
	C138.4 219.77 138.64 218.42 139.16 217.17z" fill="rgba(72,150,23,1)" data-uid="o_f7ii3m2de_59"></path><path class="st6" d="M165.6 275.94c-2.07-1.55-4.51-2.53-7.06-2.84l0 0l-0.04 0l-0.01 0l-0.01 0l-0.04 0h-0.01h-0.01l-0.02 0
	c-0.08 0-0.15 0.01-0.23 0.02l-0.02 0l-0.06 0.01l-0.01 0l-0.01 0l-0.04 0.01l-0.02 0l-0.01 0l-0.02 0.01l-0.02 0.01l-0.02 0.01l0 0
	l-0.02 0.01l-0.01 0l-0.01 0l-0.02 0.01h0l-0.04 0.02l-0.02 0.01l0 0l-0.02 0.01l-0.01 0.01l-0.01 0l-0.02 0.01l0 0l-0.01 0.01
	l-0.01 0.01l0 0l-0.02 0.01l0 0l-0.01 0.01c-0.08 0.05-0.15 0.11-0.22 0.18l-0.01 0.01l0 0l-0.01 0.01l-0.02 0.02l-0.01 0.01l0 0
	l-0.01 0.02l0 0c-0.02 0.02-0.04 0.04-0.05 0.07l-0.01 0.01l-0.02 0.03c-1.52 2.07-2.48 4.5-2.77 7.04
	c-0.29 2.47 0.05 5.05 1.1 7.49c1.05 2.44 2.69 4.46 4.69 5.95c2.07 1.55 4.51 2.53 7.06 2.84v0c0.45 0.05 0.92-0.13 1.2-0.52
	c1.53-2.07 2.5-4.52 2.8-7.08c0.29-2.47-0.05-5.05-1.1-7.49C169.24 279.45 167.6 277.44 165.6 275.94z M168.79 289.09
	c-0.21 1.85-0.85 3.62-1.85 5.18c-1.82-0.34-3.55-1.1-5.04-2.21c-1.63-1.22-2.98-2.88-3.85-4.89c-0.87-2.01-1.14-4.13-0.91-6.16
	c0.14-1.19 0.45-2.35 0.93-3.44c2.29 6.27 5 10.48 5.01 10.5c0.39 0.61 1.2 0.79 1.81 0.4c0.61-0.39 0.79-1.2 0.4-1.81
	c-0.01-0.01-2.72-4.22-4.94-10.49c1.32 0.41 2.57 1.04 3.68 1.87c1.63 1.22 2.98 2.88 3.85 4.9
	C168.75 284.94 169.03 287.06 168.79 289.09z" fill="rgba(72,150,23,1)" data-uid="o_f7ii3m2de_60"></path><path class="st6" d="M200.64 266.19c1.99-0.26 3.93-1.03 5.63-2.33c1.71-1.3 2.96-2.98 3.73-4.83c0.79-1.88 1.07-3.95 0.83-5.98
	c-0.02-0.3-0.14-0.59-0.36-0.82c-0.15-0.15-0.32-0.26-0.5-0.33c-1.9-0.77-3.98-1.04-6.01-0.77c-1.99 0.26-3.93 1.03-5.63 2.33
	c-1.71 1.3-2.96 2.98-3.73 4.83c-0.8 1.91-1.08 4-0.82 6.06c0.06 0.49 0.38 0.88 0.8 1.05l0 0
	C196.49 266.19 198.59 266.47 200.64 266.19z M197.02 259.3c0.6-1.44 1.57-2.74 2.9-3.75c1.33-1.02 2.84-1.62 4.38-1.82
	c0.86-0.11 1.73-0.1 2.59 0.02c-3.72 3.17-6.91 4.87-6.93 4.87c-0.64 0.34-0.88 1.14-0.53 1.77c0.34 0.64 1.14 0.88 1.78 0.53
	c0.01-0.01 3.19-1.69 6.96-4.83c-0.12 0.66-0.31 1.3-0.57 1.92c-0.6 1.44-1.57 2.74-2.9 3.75c-1.33 1.02-2.84 1.62-4.38 1.82
	c-1.34 0.18-2.71 0.06-4-0.35C196.25 261.9 196.49 260.55 197.02 259.3z" fill="rgba(72,150,23,1)" data-uid="o_f7ii3m2de_61"></path><path class="st6" d="M146.03 274.18c-1.09-1.43-2.55-2.6-4.32-3.34c-1.77-0.74-3.63-0.97-5.41-0.74c-1.84 0.23-3.59 0.94-5.08 2.06
	l-0.01 0l-0.02 0.01h0l-0.02 0.02l0 0l-0.01 0.01l-0.01 0.01l-0.01 0.01l-0.02 0.01l0 0l-0.02 0.02l0 0l-0.01 0.01l-0.01 0.01
	l-0.01 0.01l-0.01 0.01l0 0l-0.02 0.02l0 0l-0.01 0.01l-0.01 0.01l-0.02 0.02l0 0l0 0l-0.01 0.02l0 0.01l-0.01 0.01l-0.01 0.01
	l0 0.01l-0.01 0.02h0l-0.01 0.02l-0.01 0.01l-0.02 0.03l0 0l-0.01 0.02l0 0.01l-0.01 0.01l-0.01 0.01l0 0.01l-0.01 0.02l0 0
	l-0.01 0.02l-0.01 0.01l-0.01 0.01l-0.01 0.02v0l-0.01 0.02l0 0.01l-0.01 0.01l-0.01 0.02l0 0l-0.01 0.02l0 0.01l-0.01 0.01
	l-0.01 0.02l0 0l-0.01 0.02l0 0.01l0 0.02l-0.01 0.02l0 0l-0.01 0.02l0 0.01l0 0.01l-0.01 0.04l0 0l0 0.02l0 0.02l0 0.02
	c-0.02 0.12-0.02 0.24-0.01 0.36l0 0.02l0 0.01l0 0.02l0 0.01l0 0.01l0 0.02v0l0 0.02l0 0c0.25 1.81 0.97 3.52 2.07 4.97
	c1.09 1.43 2.55 2.6 4.32 3.34l0.07 0.03c1.75 0.72 3.58 0.94 5.34 0.72c1.84-0.23 3.6-0.95 5.08-2.06
	c0.41-0.31 0.59-0.83 0.49-1.31C147.85 277.35 147.13 275.63 146.03 274.18z M142.2 279.92c-1.32 0.17-2.7 0-4.01-0.53l-0.06-0.03
	c-1.34-0.56-2.44-1.44-3.25-2.51c-0.38-0.5-0.71-1.05-0.96-1.63c3.86 1.42 6.39 3.02 6.4 3.02c0.61 0.38 1.42 0.2 1.8-0.41
	c0.39-0.61 0.2-1.42-0.41-1.81c-0.01-0.01-2.53-1.59-6.36-3.07c0.41-0.12 0.84-0.21 1.26-0.27c1.34-0.17 2.74 0 4.07 0.56
	c1.34 0.56 2.44 1.44 3.25 2.51c0.69 0.9 1.18 1.94 1.43 3.04C144.41 279.4 143.33 279.78 142.2 279.92z" fill="rgba(72,150,23,1)" data-uid="o_f7ii3m2de_62"></path><path class="st6" d="M158.62 242.66c-1.8-1.17-3.8-1.79-5.8-1.89c-2.05-0.11-4.11 0.32-5.95 1.24l-0.03 0.01l-0.01 0l-0.02 0.01h0
	l-0.02 0.01l-0.01 0l-0.01 0.01l-0.02 0.01l0 0l-0.02 0.01l0 0l-0.02 0.01l-0.01 0.01l-0.01 0.01l-0.02 0.01h0l-0.02 0.01l-0.01 0
	l-0.01 0.01l-0.01 0.01l-0.01 0l-0.02 0.01l0 0l-0.02 0.01l-0.01 0.01l-0.01 0.01l-0.02 0.01l0 0l-0.02 0.01l-0.01 0.01l-0.01 0.01
	l-0.01 0.01l0 0l-0.01 0.02l0 0l-0.01 0.01l-0.01 0.01l-0.02 0.02l0 0l-0.01 0.01l-0.01 0.01l0 0.01l-0.01 0.02l0 0l-0.01 0.01
	l-0.01 0.01l0 0.01l-0.01 0.02l0 0l-0.01 0.01l-0.01 0.01l0 0.01l-0.01 0.02l0 0l-0.01 0.02l-0.01 0.01l0 0.01l-0.01 0.02l0 0
	l-0.01 0.01l-0.01 0.01l0 0.01l-0.01 0.02l0 0.01l-0.01 0.01l-0.01 0.02l0 0l-0.01 0.02l0 0.01l-0.01 0.01l-0.01 0.02l0 0
	l-0.01 0.02l0 0.01l0 0.01l-0.01 0.02l0 0l-0.01 0.02l0 0.01l0 0.01l-0.01 0.02h0l-0.01 0.04l-0.01 0.02l-0.01 0.02l0 0.01l0 0.01
	c-0.01 0.04-0.01 0.07-0.02 0.11l0 0.01l0 0.01l0 0.02v0l0 0.02l0 0.01l0 0.01l0 0.02v0v0.02v0v0c-0.09 2.05 0.35 4.11 1.29 5.94
	c0.91 1.78 2.29 3.36 4.09 4.53c1.8 1.17 3.8 1.79 5.8 1.89c2.07 0.11 4.14-0.32 5.99-1.26c0.45-0.22 0.71-0.67 0.72-1.14
	c0.09-2.06-0.35-4.11-1.29-5.95C161.79 245.4 160.41 243.82 158.62 242.66z M157.42 252.91c-1.55-0.08-3.11-0.56-4.51-1.47
	c-1.4-0.91-2.48-2.14-3.18-3.52c-0.4-0.77-0.68-1.6-0.84-2.44c4.24 2.45 6.91 4.89 6.92 4.9c0.54 0.48 1.37 0.43 1.85-0.11
	c0.48-0.54 0.43-1.37-0.11-1.85c-0.01-0.01-2.66-2.43-6.87-4.93c0.66-0.11 1.33-0.15 2-0.11c1.55 0.08 3.11 0.56 4.51 1.47
	c1.4 0.91 2.48 2.14 3.18 3.52c0.62 1.2 0.96 2.53 1.01 3.88C160.13 252.76 158.78 252.98 157.42 252.91z" fill="rgba(72,150,23,1)" data-uid="o_f7ii3m2de_63"></path><path class="st6" d="M218.41 270c-2.04-0.37-4.15-0.21-6.1 0.48c-1.89 0.67-3.63 1.82-5.03 3.45c-1.4 1.63-2.27 3.53-2.65 5.5
	c-0.38 2-0.23 4.08 0.42 6.01c0.05 0.2 0.16 0.39 0.31 0.56c0.21 0.22 0.48 0.36 0.77 0.4c2.02 0.36 4.11 0.19 6.05-0.49
	c1.89-0.67 3.63-1.82 5.03-3.45c1.4-1.63 2.27-3.53 2.65-5.5c0.38-2.01 0.23-4.09-0.43-6.03C219.3 270.46 218.92 270.09 218.41 270z
	 M217.29 276.48c-0.29 1.53-0.97 3.01-2.06 4.27c-1.09 1.27-2.44 2.16-3.91 2.68c-0.63 0.22-1.29 0.38-1.95 0.46
	c3.34-3.59 5.21-6.68 5.22-6.69c0.37-0.62 0.17-1.42-0.45-1.79c-0.62-0.37-1.42-0.17-1.8 0.45c-0.01 0.01-1.87 3.09-5.25 6.63
	c-0.08-0.86-0.04-1.73 0.12-2.58c0.29-1.53 0.97-3.01 2.06-4.27c1.09-1.27 2.44-2.16 3.91-2.68c1.28-0.45 2.64-0.62 3.98-0.49
	C217.5 273.77 217.54 275.14 217.29 276.48z" fill="rgba(72,150,23,1)" data-uid="o_f7ii3m2de_64"></path><path class="st6" d="M115.42 272.34c1.85 0.85 3.89 1.21 5.92 1.05c0.31 0 0.61-0.11 0.86-0.33c0.16-0.14 0.28-0.31 0.35-0.5
	c0.84-1.87 1.18-3.93 0.98-5.98c-0.19-1.99-0.89-3.97-2.13-5.72c-1.24-1.75-2.87-3.06-4.69-3.9c-1.88-0.87-3.96-1.23-6.03-1.04
	c-0.49 0.04-0.89 0.35-1.08 0.77l0 0c-0.86 1.88-1.2 3.97-1.01 6.03c0.19 1.99 0.89 3.97 2.13 5.72
	C111.98 270.19 113.61 271.5 115.42 272.34z M111.71 258.5c1.35 0 2.69 0.29 3.92 0.85c1.42 0.65 2.68 1.67 3.65 3.04
	c0.97 1.36 1.51 2.9 1.66 4.45c0.08 0.86 0.04 1.73-0.12 2.58c-3.04-3.84-4.62-7.09-4.62-7.1c-0.32-0.65-1.11-0.91-1.75-0.58
	c-0.65 0.32-0.91 1.11-0.58 1.75c0.01 0.01 1.58 3.25 4.56 7.12c-0.65-0.14-1.29-0.36-1.9-0.64c-1.42-0.65-2.68-1.67-3.65-3.04
	c-0.97-1.36-1.51-2.9-1.66-4.45C111.09 261.13 111.26 259.77 111.71 258.5z" fill="rgba(72,150,23,1)" data-uid="o_f7ii3m2de_65"></path><path class="st5" d="M115.42 272.34c1.85 0.85 3.89 1.21 5.92 1.05c0.31 0 0.61-0.11 0.86-0.33c0.16-0.14 0.28-0.31 0.35-0.5
	c0.84-1.87 1.18-3.93 0.98-5.98c-0.19-1.99-0.89-3.97-2.13-5.72c-1.24-1.75-2.87-3.06-4.69-3.9c-1.88-0.87-3.96-1.23-6.03-1.04
	c-0.49 0.04-0.89 0.35-1.08 0.77l0 0c-0.86 1.88-1.2 3.97-1.01 6.03c0.19 1.99 0.89 3.97 2.13 5.72
	C111.98 270.19 113.61 271.5 115.42 272.34z M111.71 258.5c1.35 0 2.69 0.29 3.92 0.85c1.42 0.65 2.68 1.67 3.65 3.04
	c0.97 1.36 1.51 2.9 1.66 4.45c0.08 0.86 0.04 1.73-0.12 2.58c-3.04-3.84-4.62-7.09-4.62-7.1c-0.32-0.65-1.11-0.91-1.75-0.58
	c-0.65 0.32-0.91 1.11-0.58 1.75c0.01 0.01 1.58 3.25 4.56 7.12c-0.65-0.14-1.29-0.36-1.9-0.64c-1.42-0.65-2.68-1.67-3.65-3.04
	c-0.97-1.36-1.51-2.9-1.66-4.45C111.09 261.13 111.26 259.77 111.71 258.5z" fill="black" data-uid="o_f7ii3m2de_66"></path><path class="st5" d="M226.02 240.76c2.01 1.51 4.39 2.48 6.89 2.78v0l0.02 0h0l0.02 0l0.01 0h0.01l0.02 0
	c0.09 0.01 0.18 0 0.27-0.01l0.02 0l0.02 0l0.06-0.01l0.01 0l0.01 0l0.02-0.01l0.04-0.01l0 0l0.02-0.01l0.02-0.01l0.02-0.01h0
	l0.02-0.01l0.01 0l0.01 0l0.02-0.01l0 0l0.02-0.01c0.04-0.02 0.08-0.04 0.12-0.06l0.02-0.01l0 0l0.02-0.01l0.01 0l0.01-0.01
	l0.02-0.01l0.02-0.01l0.01 0c0.06-0.04 0.11-0.09 0.16-0.13l0.01-0.01l0.01-0.01l0.02-0.02l0.01-0.01l0.02-0.02l0.01-0.01l0 0
	l0.01-0.02l0 0l0.01-0.01l0.01-0.02l0.01-0.02l0.01-0.02l0.01-0.01l0.01-0.01c1.49-2.02 2.44-4.4 2.73-6.88
	c0.28-2.41-0.04-4.93-1.06-7.32c-1.02-2.39-2.62-4.36-4.57-5.82c-2.01-1.51-4.39-2.48-6.89-2.79v0c-0.45-0.05-0.92 0.13-1.21 0.52
	c-1.5 2.02-2.45 4.41-2.74 6.9c-0.28 2.41 0.04 4.93 1.06 7.32C222.48 237.33 224.07 239.3 226.02 240.76z M222.99 227.93
	c0.21-1.79 0.83-3.5 1.8-5c1.76 0.34 3.43 1.07 4.87 2.15c1.58 1.19 2.89 2.8 3.72 4.76c0.84 1.96 1.1 4.01 0.87 5.99
	c-0.13 1.13-0.43 2.23-0.87 3.27c-2.21-6.07-4.82-10.14-4.83-10.16c-0.39-0.61-1.19-0.79-1.81-0.41c-0.61 0.39-0.8 1.19-0.41 1.81
	c0.01 0.01 2.62 4.09 4.77 10.16c-1.26-0.4-2.45-1.01-3.51-1.81c-1.58-1.19-2.89-2.8-3.72-4.76
	C223.02 231.96 222.76 229.9 222.99 227.93z" fill="black" data-uid="o_f7ii3m2de_67"></path><path class="st5" d="M142.14 231.19c1.8 0.95 3.83 1.42 5.86 1.36c0.49 0.02 0.98-0.24 1.22-0.71c0.95-1.84 1.41-3.9 1.32-5.97
	c-0.08-2-0.68-4.01-1.82-5.82c-1.15-1.82-2.71-3.21-4.48-4.14c-1.8-0.95-3.83-1.42-5.87-1.36c-0.49-0.02-0.98 0.24-1.22 0.7
	c-0.95 1.84-1.41 3.9-1.32 5.97c0.08 2 0.68 4.01 1.82 5.82C138.81 228.86 140.37 230.26 142.14 231.19z M139.16 217.17
	c1.35 0.07 2.67 0.43 3.87 1.06c1.38 0.73 2.59 1.81 3.48 3.22c0.89 1.41 1.36 2.97 1.42 4.53c0.03 0.67-0.02 1.34-0.13 2
	c-2.45-4.24-4.85-6.93-4.86-6.94c-0.48-0.54-1.31-0.59-1.85-0.11c-0.54 0.48-0.59 1.31-0.11 1.85c0.01 0.01 2.42 2.7 4.81 6.97
	c-0.84-0.18-1.66-0.47-2.43-0.87c-1.38-0.73-2.59-1.81-3.48-3.22c-0.89-1.41-1.36-2.97-1.42-4.53
	C138.4 219.77 138.64 218.42 139.16 217.17z" fill="black" data-uid="o_f7ii3m2de_68"></path><path class="st5" d="M181.23 239.19c1.74 1.12 3.75 1.77 5.82 1.88c0.18 0.01 0.36-0.02 0.54-0.09c0.29-0.11 0.52-0.32 0.66-0.57
	c1.09-1.74 1.72-3.74 1.82-5.79c0.09-2-0.32-4.05-1.3-5.95c-0.98-1.91-2.41-3.43-4.1-4.52c-1.74-1.12-3.75-1.77-5.82-1.88v0
	c-0.45-0.02-0.91 0.19-1.17 0.6c-1.11 1.75-1.75 3.77-1.85 5.84c-0.09 2 0.32 4.05 1.3 5.95
	C178.12 236.58 179.55 238.1 181.23 239.19z M179.49 224.96c1.34 0.18 2.62 0.66 3.76 1.39c1.31 0.84 2.42 2.03 3.18 3.52
	c0.76 1.49 1.09 3.08 1.02 4.64c-0.03 0.67-0.13 1.33-0.31 1.98c-2.06-4.45-4.21-7.33-4.22-7.34c-0.43-0.58-1.25-0.71-1.83-0.28
	c-0.58 0.43-0.71 1.25-0.28 1.83c0.01 0.01 2.17 2.91 4.18 7.37c-0.83-0.25-1.62-0.61-2.35-1.09c-1.31-0.84-2.42-2.03-3.18-3.52
	c-0.77-1.49-1.09-3.08-1.02-4.64C178.51 227.48 178.87 226.15 179.49 224.96z" fill="black" data-uid="o_f7ii3m2de_69"></path><path class="st5" d="M165.6 275.94c-2.07-1.55-4.51-2.53-7.06-2.84l0 0l-0.04 0l-0.01 0l-0.01 0l-0.04 0h-0.01h-0.01l-0.02 0
	c-0.08 0-0.15 0.01-0.23 0.02l-0.02 0l-0.06 0.01l-0.01 0l-0.01 0l-0.04 0.01l-0.02 0l-0.01 0l-0.02 0.01l-0.02 0.01l-0.02 0.01l0 0
	l-0.02 0.01l-0.01 0l-0.01 0l-0.02 0.01h0l-0.04 0.02l-0.02 0.01l0 0l-0.02 0.01l-0.01 0.01l-0.01 0l-0.02 0.01l0 0l-0.01 0.01
	l-0.01 0.01l0 0l-0.02 0.01l0 0l-0.01 0.01c-0.08 0.05-0.15 0.11-0.22 0.18l-0.01 0.01l0 0l-0.01 0.01l-0.02 0.02l-0.01 0.01l0 0
	l-0.01 0.02l0 0c-0.02 0.02-0.04 0.04-0.05 0.07l-0.01 0.01l-0.02 0.03c-1.52 2.07-2.48 4.5-2.77 7.04
	c-0.29 2.47 0.05 5.05 1.1 7.49c1.05 2.44 2.69 4.46 4.69 5.95c2.07 1.55 4.51 2.53 7.06 2.84v0c0.45 0.05 0.92-0.13 1.2-0.52
	c1.53-2.07 2.5-4.52 2.8-7.08c0.29-2.47-0.05-5.05-1.1-7.49C169.24 279.45 167.6 277.44 165.6 275.94z M168.79 289.09
	c-0.21 1.85-0.85 3.62-1.85 5.18c-1.82-0.34-3.55-1.1-5.04-2.21c-1.63-1.22-2.98-2.88-3.85-4.89c-0.87-2.01-1.14-4.13-0.91-6.16
	c0.14-1.19 0.45-2.35 0.93-3.44c2.29 6.27 5 10.48 5.01 10.5c0.39 0.61 1.2 0.79 1.81 0.4c0.61-0.39 0.79-1.2 0.4-1.81
	c-0.01-0.01-2.72-4.22-4.94-10.49c1.32 0.41 2.57 1.04 3.68 1.87c1.63 1.22 2.98 2.88 3.85 4.9
	C168.75 284.94 169.03 287.06 168.79 289.09z" fill="black" data-uid="o_f7ii3m2de_70"></path><path class="st5" d="M158.62 242.66c-1.8-1.17-3.8-1.79-5.8-1.89c-2.05-0.11-4.11 0.32-5.95 1.24l-0.03 0.01l-0.01 0l-0.02 0.01h0
	l-0.02 0.01l-0.01 0l-0.01 0.01l-0.02 0.01l0 0l-0.02 0.01l0 0l-0.02 0.01l-0.01 0.01l-0.01 0.01l-0.02 0.01h0l-0.02 0.01l-0.01 0
	l-0.01 0.01l-0.01 0.01l-0.01 0l-0.02 0.01l0 0l-0.02 0.01l-0.01 0.01l-0.01 0.01l-0.02 0.01l0 0l-0.02 0.01l-0.01 0.01l-0.01 0.01
	l-0.01 0.01l0 0l-0.01 0.02l0 0l-0.01 0.01l-0.01 0.01l-0.02 0.02l0 0l-0.01 0.01l-0.01 0.01l0 0.01l-0.01 0.02l0 0l-0.01 0.01
	l-0.01 0.01l0 0.01l-0.01 0.02l0 0l-0.01 0.01l-0.01 0.01l0 0.01l-0.01 0.02l0 0l-0.01 0.02l-0.01 0.01l0 0.01l-0.01 0.02l0 0
	l-0.01 0.01l-0.01 0.01l0 0.01l-0.01 0.02l0 0.01l-0.01 0.01l-0.01 0.02l0 0l-0.01 0.02l0 0.01l-0.01 0.01l-0.01 0.02l0 0
	l-0.01 0.02l0 0.01l0 0.01l-0.01 0.02l0 0l-0.01 0.02l0 0.01l0 0.01l-0.01 0.02h0l-0.01 0.04l-0.01 0.02l-0.01 0.02l0 0.01l0 0.01
	c-0.01 0.04-0.01 0.07-0.02 0.11l0 0.01l0 0.01l0 0.02v0l0 0.02l0 0.01l0 0.01l0 0.02v0v0.02v0v0c-0.09 2.05 0.35 4.11 1.29 5.94
	c0.91 1.78 2.29 3.36 4.09 4.53c1.8 1.17 3.8 1.79 5.8 1.89c2.07 0.11 4.14-0.32 5.99-1.26c0.45-0.22 0.71-0.67 0.72-1.14
	c0.09-2.06-0.35-4.11-1.29-5.95C161.79 245.4 160.41 243.82 158.62 242.66z M157.42 252.91c-1.55-0.08-3.11-0.56-4.51-1.47
	c-1.4-0.91-2.48-2.14-3.18-3.52c-0.4-0.77-0.68-1.6-0.84-2.44c4.24 2.45 6.91 4.89 6.92 4.9c0.54 0.48 1.37 0.43 1.85-0.11
	c0.48-0.54 0.43-1.37-0.11-1.85c-0.01-0.01-2.66-2.43-6.87-4.93c0.66-0.11 1.33-0.15 2-0.11c1.55 0.08 3.11 0.56 4.51 1.47
	c1.4 0.91 2.48 2.14 3.18 3.52c0.62 1.2 0.96 2.53 1.01 3.88C160.13 252.76 158.78 252.98 157.42 252.91z" fill="black" data-uid="o_f7ii3m2de_71"></path><path class="st5" d="M146.03 274.18c-1.09-1.43-2.55-2.6-4.32-3.34c-1.77-0.74-3.63-0.97-5.41-0.74c-1.84 0.23-3.59 0.94-5.08 2.06
	l-0.01 0l-0.02 0.01h0l-0.02 0.02l0 0l-0.01 0.01l-0.01 0.01l-0.01 0.01l-0.02 0.01l0 0l-0.02 0.02l0 0l-0.01 0.01l-0.01 0.01
	l-0.01 0.01l-0.01 0.01l0 0l-0.02 0.02l0 0l-0.01 0.01l-0.01 0.01l-0.02 0.02l0 0l0 0l-0.01 0.02l0 0.01l-0.01 0.01l-0.01 0.01
	l0 0.01l-0.01 0.02h0l-0.01 0.02l-0.01 0.01l-0.02 0.03l0 0l-0.01 0.02l0 0.01l-0.01 0.01l-0.01 0.01l0 0.01l-0.01 0.02l0 0
	l-0.01 0.02l-0.01 0.01l-0.01 0.01l-0.01 0.02v0l-0.01 0.02l0 0.01l-0.01 0.01l-0.01 0.02l0 0l-0.01 0.02l0 0.01l-0.01 0.01
	l-0.01 0.02l0 0l-0.01 0.02l0 0.01l0 0.02l-0.01 0.02l0 0l-0.01 0.02l0 0.01l0 0.01l-0.01 0.04l0 0l0 0.02l0 0.02l0 0.02
	c-0.02 0.12-0.02 0.24-0.01 0.36l0 0.02l0 0.01l0 0.02l0 0.01l0 0.01l0 0.02v0l0 0.02l0 0c0.25 1.81 0.97 3.52 2.07 4.97
	c1.09 1.43 2.55 2.6 4.32 3.34l0.07 0.03c1.75 0.72 3.58 0.94 5.34 0.72c1.84-0.23 3.6-0.95 5.08-2.06
	c0.41-0.31 0.59-0.83 0.49-1.31C147.85 277.35 147.13 275.63 146.03 274.18z M142.2 279.92c-1.32 0.17-2.7 0-4.01-0.53l-0.06-0.03
	c-1.34-0.56-2.44-1.44-3.25-2.51c-0.38-0.5-0.71-1.05-0.96-1.63c3.86 1.42 6.39 3.02 6.4 3.02c0.61 0.38 1.42 0.2 1.8-0.41
	c0.39-0.61 0.2-1.42-0.41-1.81c-0.01-0.01-2.53-1.59-6.36-3.07c0.41-0.12 0.84-0.21 1.26-0.27c1.34-0.17 2.74 0 4.07 0.56
	c1.34 0.56 2.44 1.44 3.25 2.51c0.69 0.9 1.18 1.94 1.43 3.04C144.41 279.4 143.33 279.78 142.2 279.92z" fill="black" data-uid="o_f7ii3m2de_72"></path><path class="st5" d="M200.64 266.19c1.99-0.26 3.93-1.03 5.63-2.33c1.71-1.3 2.96-2.98 3.73-4.83c0.79-1.88 1.07-3.95 0.83-5.98
	c-0.02-0.3-0.14-0.59-0.36-0.82c-0.15-0.15-0.32-0.26-0.5-0.33c-1.9-0.77-3.98-1.04-6.01-0.77c-1.99 0.26-3.93 1.03-5.63 2.33
	c-1.71 1.3-2.96 2.98-3.73 4.83c-0.8 1.91-1.08 4-0.82 6.06c0.06 0.49 0.38 0.88 0.8 1.05l0 0
	C196.49 266.19 198.59 266.47 200.64 266.19z M197.02 259.3c0.6-1.44 1.57-2.74 2.9-3.75c1.33-1.02 2.84-1.62 4.38-1.82
	c0.86-0.11 1.73-0.1 2.59 0.02c-3.72 3.17-6.91 4.87-6.93 4.87c-0.64 0.34-0.88 1.14-0.53 1.77c0.34 0.64 1.14 0.88 1.78 0.53
	c0.01-0.01 3.19-1.69 6.96-4.83c-0.12 0.66-0.31 1.3-0.57 1.92c-0.6 1.44-1.57 2.74-2.9 3.75c-1.33 1.02-2.84 1.62-4.38 1.82
	c-1.34 0.18-2.71 0.06-4-0.35C196.25 261.9 196.49 260.55 197.02 259.3z" fill="black" data-uid="o_f7ii3m2de_73"></path><path class="st5" d="M311.92 208.19l-40.33 0.38c-0.72 0.01-1.3 0.6-1.3 1.32c0.01 0.72 0.6 1.3 1.32 1.3l40.33-0.38
	c0.72-0.01 1.3-0.6 1.3-1.32C313.23 208.77 312.64 208.19 311.92 208.19z" fill="black" data-uid="o_f7ii3m2de_74"></path><path class="st5" d="M265.17 253.03c-2.27-2.12-5.11-3.69-8.35-4.44c-3.22-0.75-6.43-0.6-9.38 0.28l-0.07 0.02
	c-3.07 0.93-5.86 2.66-8.07 5l-0.03 0.03l-0.01 0.01l0 0l-0.01 0.01l0 0l-0.01 0.01l-0.01 0.01l0 0l-0.01 0.02l0 0l-0.01 0.01
	l-0.01 0.01l0 0l-0.01 0.02l0 0l-0.01 0.01l-0.01 0.01l0 0l-0.01 0.02l0 0.01l-0.01 0.01l-0.01 0.02v0l-0.01 0.02l0 0.01l0 0.01
	l-0.01 0.02l-0.01 0.03l0 0.01l-0.01 0.02v0l-0.01 0.02l-0.01 0.01l-0.02 0.06l0 0l-0.01 0.02l0 0.01
	c-0.01 0.04-0.02 0.09-0.03 0.13l0 0l-0.01 0.06v0l0 0.02v0.01l0 0.01l0 0.02v0l0 0.02l0 0.01l0 0.03v0c0 0.04 0 0.08 0 0.13v0
	l0 0.02l0 0.01l0 0.06v0l0 0.03l0 0.01l0 0.02v0l0.01 0.06v0l0.01 0.02l0 0.01l0 0.02l0 0.01l0.01 0.03l0 0l0.01 0.02
	c0.95 3.07 2.69 5.85 5.04 8.05c2.27 2.12 5.11 3.69 8.35 4.44c3.24 0.76 6.48 0.6 9.45-0.3v0c3.08-0.93 5.87-2.66 8.07-4.99v0
	c0.31-0.33 0.44-0.82 0.3-1.28C269.27 258 267.52 255.22 265.17 253.03z M261.09 264.84L261.09 264.84L261.09 264.84
	c-2.55 0.77-5.33 0.9-8.1 0.26c-2.78-0.65-5.21-1.99-7.16-3.8c-1.36-1.26-2.47-2.76-3.31-4.4c8.51 2.6 15.27 3.03 15.29 3.03
	c0.72 0.04 1.34-0.5 1.39-1.23c0.04-0.72-0.5-1.34-1.23-1.39c-0.02 0-6.76-0.43-15.2-3.07c1.58-1.28 3.4-2.24 5.36-2.83l0.05-0.02
	c2.53-0.75 5.29-0.88 8.04-0.24c2.78 0.65 5.21 1.99 7.16 3.81c1.83 1.7 3.22 3.82 4.07 6.16
	C265.67 262.83 263.48 264.12 261.09 264.84z" fill="black" data-uid="o_f7ii3m2de_75"></path><path class="st5" d="M197.99 288.97c0.17-0.24 0.26-0.53 0.24-0.85c-0.01-0.23-0.09-0.44-0.2-0.62c-0.98-1.79-2.41-3.31-4.13-4.39
	c-1.69-1.06-3.69-1.7-5.83-1.78c-2.14-0.08-4.17 0.42-5.94 1.35c-1.83 0.97-3.39 2.4-4.5 4.16c-0.27 0.43-0.26 0.96-0.01 1.37
	c0.98 1.81 2.41 3.33 4.15 4.42c1.69 1.06 3.69 1.7 5.83 1.78c2.14 0.08 4.17-0.42 5.94-1.35
	C195.35 292.11 196.89 290.69 197.99 288.97z M187.68 291.8c-1.67-0.06-3.22-0.56-4.54-1.39c-1.15-0.72-2.13-1.68-2.86-2.81
	c0.81-1.07 1.86-1.96 3.06-2.6c1.38-0.73 2.96-1.12 4.63-1.05c1.66 0.06 3.22 0.56 4.54 1.39c0.74 0.46 1.4 1.02 1.98 1.66
	c-4.89 0.08-8.43-0.64-8.45-0.65c-0.71-0.14-1.4 0.33-1.54 1.04c-0.14 0.71 0.32 1.4 1.04 1.54c0.01 0 3.53 0.72 8.43 0.7
	c-0.51 0.43-1.06 0.81-1.66 1.12C190.93 291.48 189.35 291.86 187.68 291.8z" fill="black" data-uid="o_f7ii3m2de_76"></path><path class="st5" d="M218.41 270c-2.04-0.37-4.15-0.21-6.1 0.48c-1.89 0.67-3.63 1.82-5.03 3.45c-1.4 1.63-2.27 3.53-2.65 5.5
	c-0.38 2-0.23 4.08 0.42 6.01c0.05 0.2 0.16 0.39 0.31 0.56c0.21 0.22 0.48 0.36 0.77 0.4c2.02 0.36 4.11 0.19 6.05-0.49
	c1.89-0.67 3.63-1.82 5.03-3.45c1.4-1.63 2.27-3.53 2.65-5.5c0.38-2.01 0.23-4.09-0.43-6.03C219.3 270.46 218.92 270.09 218.41 270z
	 M217.29 276.48c-0.29 1.53-0.97 3.01-2.06 4.27c-1.09 1.27-2.44 2.16-3.91 2.68c-0.63 0.22-1.29 0.38-1.95 0.46
	c3.34-3.59 5.21-6.68 5.22-6.69c0.37-0.62 0.17-1.42-0.45-1.79c-0.62-0.37-1.42-0.17-1.8 0.45c-0.01 0.01-1.87 3.09-5.25 6.63
	c-0.08-0.86-0.04-1.73 0.12-2.58c0.29-1.53 0.97-3.01 2.06-4.27c1.09-1.27 2.44-2.16 3.91-2.68c1.28-0.45 2.64-0.62 3.98-0.49
	C217.5 273.77 217.54 275.14 217.29 276.48z" fill="black" data-uid="o_f7ii3m2de_77"></path><path class="st5" d="M247.66 240.97c3.42-0.17 6.77-1.14 9.76-2.84c3.23-1.83 6.04-4.51 8.06-7.93c2.02-3.42 3-7.18 3.04-10.9
	c0.04-3.85-0.93-7.65-2.8-11l0 0c-0.22-0.4-0.65-0.67-1.14-0.67c-3.84-0.02-7.64 0.97-10.98 2.87c-3.23 1.83-6.04 4.51-8.06 7.93
	c-2.02 3.43-3 7.18-3.04 10.9c-0.04 3.7 0.85 7.35 2.59 10.61c-6.74 7.62-14.78 14.07-23.77 19c-12.55 6.87-26.95 10.78-42.27 10.78
	c-10.13 0-19.86-1.71-28.92-4.86c7.53 0.27 15.46-1.39 22.79-4.92c11.05-5.32 20.75-14.87 25.65-28.4l0.1-0.28
	c3.56 0.76 7.14 0.15 10.14-1.52c3.26-1.82 5.83-4.88 6.94-8.75c0.08-0.29 0.16-0.59 0.22-0.89c0.05-0.24 0.1-0.53 0.16-0.85
	c0.12-0.66-0.27-1.31-0.92-1.5l-0.01 0c-0.17-0.05-0.17-0.05-0.25-0.08c-2.6-0.74-5.23-0.73-7.67-0.09c-0.06-1.06-0.23-2.1-0.51-3.1
	c-0.45-1.64-1.19-3.2-2.18-4.58c-0.37-0.53-1.07-0.69-1.63-0.42c-1.55 0.66-2.97 1.58-4.2 2.71c-0.77 0.71-1.46 1.5-2.07 2.37
	c-1.74-1.83-3.97-3.23-6.57-3.97l-0.02 0v0l-0.26-0.07c-0.68-0.18-1.38 0.2-1.59 0.86c-0.11 0.26-0.21 0.51-0.29 0.74
	c-0.1 0.29-0.2 0.59-0.28 0.87c-1.09 3.82-0.55 7.72 1.21 10.96c1.56 2.87 4.08 5.21 7.26 6.52l-0.06 0.17
	c-4.65 12.83-13.85 21.89-24.33 26.93c-16.88 8.13-33.22 3.96-44.35-4.55c-6.16-4.46-11.72-9.7-16.53-15.56
	c4.18 2.37 9.18 4.19 14.7 4.89c6.87 0.87 14.55 0 22.44-3.71c3.05-1.44 6.25-3.54 9.26-5.94c2.5 0.4 5.07 0.16 7.45-0.69
	c2.4-0.86 4.62-2.34 6.39-4.42c1.77-2.08 2.89-4.51 3.35-7.02c0.48-2.6 0.28-5.28-0.6-7.77h0c-0.15-0.43-0.52-0.77-1-0.86
	c-2.6-0.47-5.29-0.25-7.78 0.64c-2.4 0.86-4.62 2.34-6.39 4.42c-1.77 2.08-2.89 4.51-3.35 7.02c-0.41 2.21-0.32 4.49 0.26 6.66
	c-2.85 2.27-5.86 4.25-8.71 5.59c-7.4 3.49-14.58 4.3-21 3.49c-18.74-2.37-25.14-13.97-30.62-30.66c-0.19-0.57-0.73-0.93-1.31-0.9h0
	l-47.3 0.38c-0.72 0.01-1.3 0.6-1.3 1.32c0.01 0.72 0.6 1.3 1.32 1.3l46.4-0.37c4.24 12.46 11.1 23.71 19.94 33.07
	c5.63 6.18 9.41 11.92 11.32 17.23c1.73 4.79 1.93 9.22 0.62 13.3c-2.42 0.13-4.8 0.83-6.91 2.03c-2.31 1.31-4.32 3.23-5.77 5.68
	c-1.44 2.45-2.15 5.14-2.18 7.8c-0.03 2.75 0.66 5.47 2 7.87l0 0c0.22 0.4 0.65 0.67 1.14 0.67c2.75 0.01 5.47-0.69 7.86-2.05
	c2.31-1.31 4.32-3.22 5.77-5.67c1.44-2.45 2.15-5.14 2.18-7.8c0.03-2.55-0.56-5.07-1.72-7.33c1.63-4.74 1.46-9.86-0.53-15.36
	c-0.8-2.21-1.89-4.49-3.28-6.83c0.77 0.6 1.55 1.18 2.34 1.75c12.68 9.18 27.81 15.16 44.23 16.76c13.5 1.62 21.52 4.64 26.15 8.8
	c4.19 3.76 5.63 8.56 5.94 14.16c-3.59 0.22-6.83 1.75-9.25 4.11c-2.67 2.61-4.35 6.23-4.4 10.26c0 0.32 0 0.63 0.02 0.91
	c0.02 0.32 0.04 0.62 0.07 0.9h0c0.07 0.64 0.61 1.15 1.27 1.17l0.27 0.01h0.01c2.7 0.03 5.24-0.67 7.43-1.92
	c0.33 1.01 0.77 1.97 1.3 2.86c0.87 1.46 1.99 2.76 3.3 3.85c0.49 0.4 1.19 0.39 1.66 0c1.33-1.04 2.47-2.31 3.37-3.75
	c0.55-0.88 1.02-1.83 1.37-2.83c2.15 1.31 4.68 2.07 7.38 2.11h0.01h0.27c0.66 0 1.21-0.49 1.3-1.13h0c0.04-0.31 0.07-0.61 0.1-0.9
	c0.02-0.26 0.03-0.57 0.04-0.92c0.05-3.97-1.5-7.59-4.04-10.25l0 0c-2.29-2.39-5.38-4.01-8.85-4.41
	c-0.31-6.34-1.94-11.81-6.81-16.18c-2.97-2.67-7.15-4.9-12.97-6.62c13.52-0.89 26.24-4.74 37.51-10.91
	C232.11 256.02 240.6 249.13 247.66 240.97z M247.8 219.77c1.78-3.02 4.25-5.38 7.09-6.99c2.72-1.55 5.78-2.41 8.9-2.52
	c1.42 2.79 2.15 5.89 2.11 9.02c-0.04 3.26-0.9 6.56-2.68 9.58c-1.78 3.02-4.25 5.38-7.1 6.99c-1.88 1.07-3.94 1.81-6.05 2.2
	c1.95-2.44 3.77-4.99 5.46-7.63c0.85-1.32 1.65-2.65 2.41-3.98c0.77-1.35 1.5-2.71 2.19-4.09c0.33-0.65 0.07-1.43-0.58-1.76
	c-0.64-0.33-1.43-0.07-1.76 0.58c-0.68 1.35-1.39 2.68-2.13 3.97c-0.76 1.33-1.54 2.62-2.33 3.87c-1.95 3.05-4.09 5.98-6.39 8.76
	c-1.23-2.63-1.85-5.51-1.82-8.42C245.15 226.1 246.02 222.8 247.8 219.77z M206.5 220.6c2.1-0.84 4.46-1.1 6.82-0.62
	c-0.03 0.1-0.05 0.2-0.08 0.3c-0.91 3.18-3.01 5.69-5.69 7.18c-2.42 1.34-5.3 1.86-8.18 1.27l0 0l0-0.01l0-0.01l0-0.01l0-0.01
	l0-0.01l0-0.01l0.05-0.18l0-0.01l0-0.01l0-0.01l0-0.01l0-0.01l0.04-0.15v0l0.01-0.02l0.02-0.06l0.01-0.02l0.01-0.02l0-0.01l0-0.01
	l0.01-0.02l0.03-0.09l0.01-0.02l0-0.01c0.52-1.59 1.34-3 2.39-4.19c0.33-0.38 0.69-0.73 1.07-1.07c1.01-0.89 2.16-1.6 3.39-2.1
	L206.5 220.6z M200.53 214.13c0.76-0.7 1.61-1.31 2.52-1.79c0.52 0.89 0.92 1.85 1.2 2.84c0.3 1.08 0.44 2.2 0.43 3.35
	c-1.22 0.58-2.35 1.33-3.36 2.22c-0.31 0.28-0.62 0.57-0.91 0.87c-0.08-0.38-0.17-0.76-0.29-1.13v0l0 0
	c-0.01-0.03-0.01-0.05-0.02-0.08c-0.39-1.29-0.96-2.53-1.69-3.66C198.99 215.77 199.71 214.89 200.53 214.13z M191.21 222.7
	c-1.44-2.65-1.88-5.85-0.99-8.99c0.03-0.1 0.06-0.2 0.09-0.3c2.27 0.84 4.15 2.32 5.5 4.17l0.01 0.02l0.02 0.03l0.04 0.05l0.01 0.01
	l0.03 0.04l0.04 0.05l0.01 0.01l0.03 0.04l0.04 0.05l0 0l0.03 0.05l0.03 0.05v0l0.03 0.05l0.03 0.05l0 0.01l0.03 0.05l0.03 0.04
	l0.01 0.01l0.03 0.05l0.02 0.04l0.01 0.02l0.03 0.05l0.02 0.03l0.01 0.02l0.03 0.05c0.5 0.84 0.9 1.75 1.19 2.69l0.02 0.06l0 0v0
	l0 0l0 0c0.34 1.14 0.51 2.35 0.49 3.57c-0.35 0.66-0.66 1.36-0.92 2.1l-0.01 0.03l-0.04 0.13l-0.01 0.03l-0.01 0.03l-0.01 0.02
	l-0.01 0.03l-0.01 0.03l-0.01 0.03l-0.01 0.03l-0.01 0.03l-0.01 0.03l-0.01 0.03l-0.02 0.05l-0.01 0.03l-0.01 0.03l-0.01 0.03
	l-0.01 0.03l-0.01 0.03l-0.01 0.03h0l-0.01 0.03l-0.03 0.1l-0.01 0.03l-0.01 0.03l-0.05 0.19l0 0.01l0 0.01l0 0.01l0 0
	C194.39 226.84 192.44 224.97 191.21 222.7z M157.95 224.49c0.38-2.07 1.3-4.07 2.77-5.79c1.47-1.72 3.3-2.94 5.29-3.65
	c1.82-0.65 3.76-0.87 5.66-0.65c0.52 1.85 0.61 3.8 0.26 5.7c-0.38 2.07-1.3 4.07-2.77 5.79c-1.47 1.72-3.3 2.94-5.29 3.65
	c-1.19 0.42-2.43 0.67-3.68 0.72c2.75-2.47 5.24-5.11 7.15-7.6c0.44-0.57 0.34-1.39-0.24-1.84c-0.57-0.44-1.39-0.34-1.84 0.23
	c-1.94 2.52-4.51 5.23-7.37 7.73C157.67 227.36 157.69 225.91 157.95 224.49z M126.47 282.9c-0.02 2.21-0.61 4.44-1.82 6.48
	c-1.21 2.04-2.88 3.64-4.8 4.73c-1.77 1-3.75 1.58-5.77 1.69c-0.89-1.83-1.34-3.85-1.32-5.88c0.02-2.21 0.61-4.44 1.82-6.49
	c1.21-2.04 2.88-3.64 4.8-4.73c1.37-0.77 2.86-1.3 4.4-1.55c-0.49 0.92-1.14 2.03-1.81 3.17c-1.31 2.2-2.72 4.42-3.39 5.27
	c-0.44 0.57-0.34 1.39 0.23 1.84c0.57 0.44 1.39 0.34 1.84-0.23c0.75-0.96 2.23-3.28 3.58-5.55c0.59-0.99 1.16-1.98 1.64-2.85
	C126.28 280.13 126.49 281.51 126.47 282.9z M204.8 299.91l0-0.02l0-0.02l0-0.01l0.02-0.13l0-0.02l0-0.02v0l0-0.02l0.01-0.11l0-0.03
	l0-0.02v0l0-0.03l0-0.03l0-0.03l0.01-0.05l0-0.03l0-0.02l0 0l0-0.03c0.01-0.1 0.02-0.19 0.03-0.29l0-0.03v-0.02l0-0.01l0-0.03
	l0-0.03l0.01-0.08l0-0.03l0-0.02l0-0.01l0-0.03l0-0.03l0-0.03l0-0.03l0-0.03l0-0.04l0-0.01l0.01-0.13l0-0.03v-0.01l0-0.02l0-0.03
	l0-0.03l0-0.03l0-0.03l0-0.03l0-0.03l0-0.01v-0.02v-0.03l0-0.03l0-0.03l0-0.03v-0.03v-0.03v0l0-0.02l0-0.05v-0.03l0-0.08v-0.01
	v-0.01v-0.03v-0.01l0-0.04v-0.01v-0.04v-0.01v-0.01v-0.01v-0.01c2.67 0.41 5.05 1.69 6.83 3.56l0 0l0 0
	c2.09 2.18 3.36 5.16 3.32 8.42c0 0.1 0 0.2-0.01 0.31c-2.39-0.22-4.58-1.14-6.36-2.55c-0.03-0.02-0.06-0.05-0.09-0.07l-0.05-0.04
	l-0.02-0.01l-0.03-0.03l-0.05-0.04l-0.01-0.01l-0.03-0.03l-0.05-0.04l-0.01-0.01l-0.04-0.03l-0.05-0.04l-0.01 0l-0.04-0.04
	l-0.05-0.04l0 0l0 0l-0.17-0.16l0 0c-1.6-1.49-2.79-3.41-3.39-5.57l-0.01-0.03l-0.02-0.06l-0.01-0.02l-0.01-0.04l-0.02-0.06l0-0.02
	C204.68 300.6 204.74 300.26 204.8 299.91z M203.21 304.61c0.73 1.43 1.7 2.73 2.84 3.84l0.05 0.04l0.09 0.09l0.05 0.04l0.05 0.04
	l0.05 0.04l0.04 0.04l0.01 0.01l0.05 0.04c-0.31 1.11-0.77 2.15-1.37 3.1c-0.55 0.88-1.21 1.68-1.96 2.38
	c-0.73-0.72-1.37-1.54-1.9-2.43c-0.57-0.97-1.01-2.02-1.3-3.13c1.02-0.88 1.92-1.9 2.66-3.02
	C202.8 305.34 203.01 304.98 203.21 304.61z M202.36 297.58L202.36 297.58L202.36 297.58v0.01v0.03v0v0v0v0v0v0.01v0v0v0v0v0v0v0.01
	v0v0v0v0v0v0v0v0v0v0v0v0v0v0v0v0v0v0v0v0v0v0v0v0v0v0v0v0v0l0 0.01v0.01v0.02v0.02v0.02v0.05l0 0.02v0.02v0l0 0.02l0 0.02l0 0.04
	v0.02l0 0.02l0 0.02v0l0 0.02l0 0.02v0.02l0 0.02l0 0.02l0 0.02l0 0.07l0 0.02l0 0.02v0.02l0 0.02l0 0.07l0 0.02l0 0.02
	c-0.02 0.24-0.04 0.47-0.07 0.71c-0.06 0.46-0.15 0.92-0.27 1.39l-0.01 0.04c-0.33 1.3-0.88 2.51-1.59 3.59
	c-0.43 0.65-0.92 1.25-1.46 1.8l-0.04 0.04l-0.04 0.04l-0.04 0.04l-0.04 0.04l-0.05 0.04l-0.09 0.09l-0.05 0.04l0 0l-0.04 0.04
	l-0.05 0.04l0 0l-0.04 0.04l-0.05 0.04l-0.01 0.01l-0.04 0.03l-0.05 0.04l-0.01 0.01l-0.04 0.03l-0.05 0.04l-0.01 0.01l-0.03 0.03
	l-0.05 0.04l-0.02 0.02l-0.03 0.03l-0.05 0.04l-0.02 0.02l-0.03 0.02l-0.05 0.04l-0.03 0.02l-0.02 0.02l-0.05 0.04l-0.03 0.02
	l-0.02 0.02l-0.05 0.04l-0.03 0.03l-0.01 0.01c-1.82 1.39-4.05 2.27-6.47 2.43c0-0.11 0-0.21 0-0.32c0.04-3.3 1.42-6.28 3.61-8.42
	c1.98-1.93 4.63-3.18 7.56-3.38L202.36 297.58z" fill="black" data-uid="o_f7ii3m2de_78"></path></svg></g><path text="NATUR'OPIED" fill="#d49587" space="preserve" text-anchor="middle" offset="0.5" font-scale="contain" font-size="48" font-family="Autour One" transform="matrix(0.969952404230324, 0, 0, 0.969952404230324, 256.3205596790043, 273.551297169037)" data-fl-textpath="" font-style="normal" font-weight="400" data-uid="o_f7ii3m2de_79" d="M-170.049-1.5L-170.049-1.5Q-170.049-2.48 -169.909-3.16Q-169.769-3.84 -169.749-3.8L-169.749-3.8Q-169.699-6.35 -169.669-8.98Q-169.629-11.6 -169.629-14.53L-169.629-14.53Q-169.629-16.38 -169.629-18.55Q-169.629-20.72 -169.669-22.93Q-169.699-25.15 -169.769-27.29Q-169.839-29.44 -169.959-31.27L-169.959-31.27Q-170.049-31.8 -170.099-32.24Q-170.149-32.67 -170.149-33.16L-170.149-33.16Q-170.149-34.31 -169.649-34.98Q-169.159-35.65 -168.059-35.91L-168.059-35.91Q-167.589-36.3 -167.019-36.46Q-166.439-36.61 -165.899-36.61L-165.899-36.61Q-165.339-36.61 -164.879-36.28Q-164.429-35.95 -164.079-35.51Q-163.719-35.06 -163.489-34.58Q-163.259-34.1 -163.159-33.8L-163.159-33.8Q-162.429-32.72 -161.419-31.34Q-160.399-29.95 -159.189-28.37Q-157.979-26.79 -156.619-25.07Q-155.259-23.34 -153.869-21.59Q-152.469-19.83 -151.089-18.08Q-149.709-16.34 -148.469-14.72Q-147.219-13.1 -146.149-11.66Q-145.069-10.22 -144.289-9.07L-144.289-9.07Q-144.289-14.09 -144.329-17.71Q-144.359-21.33 -144.409-23.87Q-144.459-26.41 -144.529-28.05Q-144.599-29.7 -144.649-30.77Q-144.689-31.85 -144.729-32.54Q-144.759-33.23 -144.759-33.87L-144.759-33.87Q-144.759-34.8 -144.559-35.4Q-144.359-36 -143.999-36.33Q-143.639-36.66 -143.099-36.77Q-142.559-36.89 -141.859-36.89L-141.859-36.89Q-140.939-36.89 -140.429-36.52Q-139.909-36.14 -139.639-35.57Q-139.369-34.99 -139.309-34.28Q-139.259-33.56 -139.259-32.88L-139.259-32.88L-139.259-6Q-139.259-5.16 -139.159-4.3Q-139.069-3.45 -139.069-2.48L-139.069-2.48Q-139.069-1.57 -139.209-0.97Q-139.349-0.38 -139.669 0Q-139.979 0.38 -140.489 0.53Q-140.989 0.68 -141.689 0.68L-141.689 0.68Q-143.009 0.68 -143.789 0.02Q-144.579-0.63 -144.899-1.57L-144.899-1.57Q-147.129-4.62 -149.419-7.58Q-151.699-10.55 -154.019-13.51Q-156.339-16.48 -158.679-19.49Q-161.029-22.5 -163.349-25.62L-163.349-25.62L-164.759-27.82Q-164.729-24.23 -164.709-21.43Q-164.679-18.63 -164.659-16.44Q-164.639-14.25 -164.609-12.57Q-164.589-10.9 -164.579-9.57Q-164.569-8.25 -164.559-7.16Q-164.539-6.07 -164.539-5.04L-164.539-5.04Q-164.519-4.43 -164.459-3.74Q-164.399-3.05 -164.399-2.39L-164.399-2.39Q-164.399-1.78 -164.509-1.22Q-164.609-0.66 -164.919-0.23Q-165.219 0.19 -165.769 0.43Q-166.329 0.68 -167.219 0.68L-167.219 0.68Q-168.409 0.68 -169.229 0.09Q-170.049-0.49 -170.049-1.5ZM-133.582-1.8L-133.582-1.8Q-133.582-2.55 -133.372-3.32Q-133.162-4.08 -132.602-4.85L-132.602-4.85Q-132.202-5.53 -131.512-6.91Q-130.812-8.3 -129.952-10.17Q-129.082-12.05 -128.082-14.26Q-127.092-16.48 -126.062-18.79Q-125.022-21.09 -124.012-23.4Q-122.992-25.71 -122.072-27.74Q-121.162-29.77 -120.412-31.41Q-119.662-33.05 -119.142-34.05L-119.142-34.05Q-119.072-34.57 -118.862-35.07Q-118.652-35.58 -118.302-35.99Q-117.952-36.4 -117.452-36.64Q-116.962-36.89 -116.312-36.89L-116.312-36.89Q-115.462-36.89 -114.942-36.66Q-114.412-36.42 -114.072-36.01Q-113.732-35.6 -113.522-35.06Q-113.312-34.52 -113.102-33.91L-113.102-33.91Q-112.912-33.38 -112.742-32.89Q-112.582-32.41 -112.442-32.16L-112.442-32.16Q-110.872-29.02 -109.382-25.83Q-107.892-22.64 -106.432-19.35Q-104.962-16.05 -103.462-12.68Q-101.962-9.3 -100.352-5.81L-100.352-5.81L-99.902-5.16Q-99.712-4.9 -99.452-4.54Q-99.202-4.17 -98.972-3.75Q-98.752-3.33 -98.602-2.86Q-98.452-2.39 -98.452-1.92L-98.452-1.92Q-98.452-0.52 -99.242 0.08Q-100.042 0.68 -101.192 0.68L-101.192 0.68Q-101.822 0.68 -102.352 0.48Q-102.882 0.28 -103.272-0.06Q-103.672-0.4 -103.912-0.86Q-104.142-1.31 -104.212-1.83L-104.212-1.83Q-104.872-3.26 -105.432-4.51Q-105.992-5.77 -106.522-6.94Q-107.052-8.11 -107.542-9.22Q-108.032-10.34 -108.522-11.46L-108.522-11.46Q-108.902-11.46 -109.582-11.47Q-110.262-11.48 -111.102-11.53L-111.102-11.53Q-112.442-11.53 -113.812-11.55Q-115.182-11.58 -116.612-11.59Q-118.042-11.6 -119.562-11.59Q-121.092-11.58 -122.752-11.51L-122.752-11.51Q-123.012-11.48 -123.242-11.47Q-123.482-11.46 -123.742-11.46L-123.742-11.46Q-124.392-9.87 -124.982-8.43Q-125.562-6.98 -126.032-5.77Q-126.502-4.55 -126.862-3.6Q-127.232-2.65 -127.422-2.06L-127.422-2.06L-127.422-2.09Q-127.562-1.57 -127.732-1.08Q-127.912-0.59 -128.242-0.2Q-128.562 0.19 -129.142 0.43Q-129.712 0.68 -130.652 0.68L-130.652 0.68Q-131.922 0.68 -132.752 0.05Q-133.582-0.59 -133.582-1.8ZM-121.602-16.57L-121.602-16.57Q-121.112-16.57 -120.332-16.57Q-119.542-16.57 -118.292-16.56Q-117.032-16.55 -115.202-16.54Q-113.382-16.52 -110.772-16.5L-110.772-16.5Q-111.852-18.84 -113.212-21.79Q-114.572-24.73 -116.422-28.64L-116.422-28.64Q-116.962-27.45 -117.572-26.02Q-118.182-24.59 -118.852-23.04Q-119.522-21.49 -120.212-19.85Q-120.902-18.21 -121.602-16.57ZM-87.272-3.14L-87.222-30.94Q-88.862-30.94 -90.622-30.91Q-92.382-30.89 -94.462-30.89L-94.462-30.89Q-95.022-30.89 -95.452-31.15Q-95.872-31.41 -96.152-31.82Q-96.432-32.23 -96.572-32.74Q-96.712-33.26 -96.712-33.77L-96.712-33.77Q-96.712-35.16 -95.942-35.68Q-95.172-36.21 -93.432-36.21L-93.432-36.21L-74.732-36.21Q-74.262-36.21 -73.762-36.09Q-73.252-35.98 -72.842-35.67Q-72.432-35.37 -72.162-34.88Q-71.892-34.38 -71.892-33.61L-71.892-33.61Q-71.892-33.05 -72.082-32.53Q-72.272-32.02 -72.582-31.64Q-72.902-31.27 -73.332-31.03Q-73.772-30.8 -74.262-30.8L-74.262-30.8Q-74.632-30.8 -74.992-30.87Q-75.342-30.94 -75.742-30.94L-75.742-30.94L-81.782-30.94L-81.852-4.5Q-81.852-3.94 -81.772-3.4Q-81.692-2.86 -81.692-2.23L-81.692-2.23Q-81.692-1.71 -81.782-1.2Q-81.882-0.68 -82.182-0.26Q-82.492 0.16 -83.052 0.43Q-83.612 0.7 -84.522 0.7L-84.522 0.7Q-85.602 0.7 -86.172 0.34Q-86.732-0.02 -86.972-0.59Q-87.222-1.15 -87.242-1.83Q-87.272-2.51 -87.272-3.14L-87.272-3.14ZM-66.55-17.23L-66.55-17.23Q-66.57-20.95 -66.54-24.71Q-66.5-28.48 -66.5-32.6L-66.5-32.6Q-66.5-33.59 -66.4-34.38Q-66.29-35.18 -66.01-35.74Q-65.73-36.3 -65.25-36.6Q-64.77-36.89 -64.02-36.89L-64.02-36.89Q-62.31-36.89 -61.6-35.89Q-60.9-34.9 -60.9-33.19L-60.9-33.19Q-60.9-32.7 -60.93-32.13Q-60.95-31.57 -60.97-30.8Q-61-30.02 -61.03-28.92Q-61.07-27.82 -61.09-26.27Q-61.11-24.73 -61.14-22.62Q-61.16-20.51 -61.16-17.7L-61.16-17.7Q-61.16-16.01 -61.05-14.36Q-60.95-12.7 -60.63-11.21Q-60.32-9.73 -59.73-8.46Q-59.14-7.2 -58.22-6.27Q-57.29-5.34 -55.94-4.83Q-54.6-4.31 -52.75-4.31L-52.75-4.31Q-50.61-4.31 -49.14-5.18Q-47.66-6.05 -46.73-7.71Q-45.81-9.38 -45.4-11.82Q-44.99-14.27 -44.99-17.44L-44.99-17.44Q-44.99-23.13 -45.08-27.07Q-45.18-31.01 -45.22-32.77L-45.22-32.77Q-45.25-33.12 -45.25-33.49Q-45.25-33.87 -45.25-33.94L-45.25-33.94Q-45.25-35.6 -44.51-36.25Q-43.77-36.89 -42.53-36.89L-42.53-36.89Q-41.73-36.89 -41.18-36.66Q-40.63-36.42 -40.3-36.05Q-39.97-35.67 -39.83-35.2Q-39.69-34.73 -39.69-34.29L-39.69-34.29Q-39.69-33.52 -39.75-32.71Q-39.81-31.9 -39.81-31.03L-39.81-31.03Q-39.81-29.16 -39.78-27.56Q-39.76-25.97 -39.71-24.52L-39.71-24.52Q-39.71-22.83 -39.67-21.11Q-39.62-19.38 -39.62-17.39L-39.62-17.39Q-39.62-13.1 -40.43-9.74Q-41.24-6.38 -42.9-4.05Q-44.57-1.73 -47.09-0.52Q-49.6 0.7 -53 0.7L-53 0.7Q-54.71 0.7 -56.38 0.39Q-58.04 0.07 -59.54-0.7Q-61.04-1.48 -62.32-2.79Q-63.6-4.1 -64.53-6.09Q-65.47-8.09 -66.01-10.83Q-66.55-13.57 -66.55-17.23ZM-30.391-2.6L-30.391-2.6Q-30.391-3.12 -30.341-3.61Q-30.291-4.1 -30.241-4.52L-30.241-4.52Q-30.241-7.78 -30.241-10.52Q-30.241-13.27 -30.241-15.64Q-30.241-18.02 -30.241-20.11Q-30.241-22.2 -30.241-24.15Q-30.241-26.11 -30.231-28Q-30.221-29.88 -30.221-31.85L-30.221-31.85Q-30.341-32.18 -30.441-32.77Q-30.551-33.35 -30.551-33.87L-30.551-33.87Q-30.551-34.36 -30.401-34.85Q-30.241-35.34 -29.931-35.73Q-29.611-36.12 -29.141-36.35Q-28.671-36.59 -28.061-36.59L-28.061-36.59Q-27.081-36.59 -26.071-36.47Q-25.061-36.35 -23.801-36.35L-23.801-36.35Q-22.741-36.35 -21.691-36.46Q-20.641-36.56 -19.441-36.59L-19.441-36.59Q-15.901-36.59 -13.031-35.88Q-10.161-35.18 -8.131-33.7Q-6.101-32.23 -5.001-29.94Q-3.901-27.66 -3.901-24.49L-3.901-24.49Q-3.901-21.49 -4.731-19.16Q-5.561-16.83 -6.871-15.09Q-8.171-13.36 -9.771-12.2Q-11.381-11.04 -12.901-10.43L-12.901-10.43Q-12.691-9.16 -12.231-8.05Q-11.781-6.94 -11.061-6.09Q-10.351-5.25 -9.391-4.76Q-8.421-4.27 -7.231-4.27L-7.231-4.27Q-6.341-4.27 -5.601-4.55Q-4.861-4.83 -4.321-5.65L-4.321-5.65Q-3.991-6.12 -3.531-6.48Q-3.061-6.84 -2.331-6.84L-2.331-6.84Q-1.061-6.84 -0.361-6.14Q 0.339-5.44  0.339-4.36L 0.339-4.36Q 0.339-3.35 -0.231-2.44Q-0.811-1.52 -1.851-0.83Q-2.891-0.14 -4.371 0.27Q-5.851 0.68 -7.651 0.68L-7.651 0.68Q-9.311 0.68 -10.661 0.2Q-12.011-0.28 -13.081-1.09Q-14.141-1.9 -14.961-2.94Q-15.781-3.98 -16.371-5.12Q-16.961-6.26 -17.331-7.38Q-17.711-8.51 -17.921-9.49L-17.921-9.49Q-18.201-9.49 -18.671-9.49Q-19.141-9.49 -19.631-9.49Q-20.121-9.49 -20.601-9.5Q-21.081-9.52 -21.391-9.52L-21.391-9.52Q-22.061-9.54 -23.061-9.55Q-24.061-9.56 -24.881-9.56L-24.881-9.56L-24.881-6.14Q-24.831-5.04 -24.601-4Q-24.361-2.95 -24.361-1.85L-24.361-1.85Q-24.361-1.17 -24.631-0.7Q-24.901-0.23 -25.321 0.08Q-25.741 0.4 -26.241 0.54Q-26.731 0.68 -27.171 0.68L-27.171 0.68Q-27.881 0.68 -28.461 0.43Q-29.051 0.19 -29.471-0.25Q-29.891-0.68 -30.141-1.28Q-30.391-1.88 -30.391-2.6ZM-24.901-14.6L-24.901-14.6Q-24.291-14.58 -23.471-14.55Q-22.651-14.53 -21.901-14.51Q-21.151-14.48 -20.561-14.47Q-19.981-14.46 -19.811-14.46L-19.811-14.46Q-16.651-14.46 -14.621-15.33Q-12.601-16.2 -11.451-17.63Q-10.301-19.05 -9.871-20.91Q-9.431-22.76 -9.431-24.7L-9.431-24.7Q-9.431-26.41 -9.971-27.6Q-10.511-28.78 -11.401-29.55Q-12.291-30.33 -13.421-30.77Q-14.541-31.22 -15.701-31.43Q-16.861-31.64 -17.981-31.69Q-19.091-31.73 -19.931-31.73L-19.931-31.73Q-21.131-31.73 -22.361-31.7Q-23.591-31.66 -25.021-31.64L-25.021-31.64Q-25.061-30.75 -25.081-30.02Q-25.091-29.3 -25.101-28.61Q-25.111-27.91 -25.111-27.2Q-25.111-26.48 -25.111-25.59L-25.111-25.59Q-25.111-24 -25.101-22.63Q-25.091-21.26 -25.061-19.96Q-25.041-18.66 -25.011-17.34Q-24.971-16.03 -24.901-14.6ZM-13.931-10.08L-13.911-10.1Q-13.931-10.1 -13.931-10.08L-13.931-10.08ZM-13.931-10.08L-13.961-10.08L-13.931-10.08ZM 8.102-24.98L 8.102-24.98Q 7.632-24.98  7.162-25.13Q 6.692-25.27  6.302-25.57Q 5.922-25.88  5.672-26.31Q 5.422-26.74  5.422-27.35L 5.422-27.35Q 5.422-28.2  5.482-29.04Q 5.542-29.88  5.542-30.87L 5.542-30.87Q 5.542-31.64  5.492-32.39Q 5.452-33.14  5.382-33.89L 5.382-33.89Q 5.312-34.66  5.252-35.45Q 5.192-36.23  5.192-37.08L 5.192-37.08Q 5.192-37.57  5.352-38.02Q 5.522-38.46  5.872-38.8Q 6.222-39.14  6.782-39.34Q 7.352-39.54  8.172-39.54L 8.172-39.54Q 8.682-39.54  9.172-39.41Q 9.672-39.28  10.052-38.98Q 10.442-38.67  10.672-38.18Q 10.912-37.69  10.912-36.98L 10.912-36.98Q 10.912-36.16  10.852-35.39Q 10.792-34.62  10.722-33.84L 10.722-33.84Q 10.652-33.09  10.602-32.32Q 10.562-31.55  10.562-30.75L 10.562-30.75Q 10.562-29.93  10.652-29.09Q 10.742-28.24  10.742-27.23L 10.742-27.23Q 10.742-26.13  10.042-25.56Q 9.342-24.98  8.102-24.98ZM 17.829-18.12L 17.829-18.12Q 17.829-22.29  19.009-25.73Q 20.189-29.18  22.359-31.66Q 24.529-34.15  27.589-35.52Q 30.649-36.89  34.369-36.89L 34.369-36.89Q 38.309-36.89  41.319-35.52Q 44.329-34.15  46.379-31.66Q 48.429-29.18  49.489-25.73Q 50.539-22.29  50.539-18.12L 50.539-18.12Q 50.539-14.16  49.399-10.72Q 48.249-7.29  46.109-4.76Q 43.979-2.23  40.959-0.77Q 37.929 0.68  34.179 0.68L 34.179 0.68Q 31.699 0.68  29.519 0.02Q 27.339-0.63  25.519-1.85Q 23.709-3.07  22.279-4.77Q 20.849-6.47  19.849-8.55Q 18.859-10.64  18.339-13.05Q 17.829-15.47  17.829-18.12ZM 23.169-18.12L 23.169-18.12Q 23.169-16.36  23.499-14.64Q 23.829-12.91  24.469-11.36Q 25.109-9.8  26.059-8.47Q 27.009-7.15  28.239-6.18Q 29.469-5.2  30.989-4.65Q 32.499-4.1  34.249-4.1L 34.249-4.1Q 36.109-4.1  37.629-4.65Q 39.149-5.2  40.369-6.18Q 41.589-7.15  42.489-8.47Q 43.399-9.8  43.989-11.36Q 44.589-12.91  44.879-14.64Q 45.179-16.36  45.179-18.12L 45.179-18.12Q 45.179-20.93  44.519-23.45Q 43.859-25.97  42.519-27.89Q 41.169-29.81  39.119-30.94Q 37.069-32.06  34.249-32.06L 34.249-32.06Q 31.609-32.06  29.539-31.05Q 27.479-30.05  26.059-28.22Q 24.649-26.39  23.909-23.82Q 23.169-21.26  23.169-18.12ZM 58.768-1.95L 58.768-1.95Q 58.768-2.7  58.878-3.46Q 58.978-4.22  59.008-5.04L 59.008-5.04L 58.908-31.99Q 58.768-32.32  58.668-32.91Q 58.558-33.49  58.558-34.01L 58.558-34.01Q 58.558-34.48  58.718-34.95Q 58.888-35.41  59.208-35.78Q 59.518-36.14  59.988-36.36Q 60.458-36.59  61.068-36.59L 61.068-36.59Q 62.098-36.59  63.128-36.48Q 64.158-36.38  65.288-36.38L 65.288-36.38Q 66.178-36.38  67.078-36.48Q 67.978-36.59  68.988-36.59L 68.988-36.59Q 72.298-36.59  75.148-35.67Q 78.008-34.76  80.098-32.99Q 82.188-31.22  83.378-28.64Q 84.578-26.06  84.578-22.76L 84.578-22.76Q 84.578-19.62  83.778-17.29Q 82.978-14.95  81.608-13.29Q 80.238-11.63  78.398-10.56Q 76.558-9.49  74.438-8.88Q 72.318-8.27  70.048-8.04Q 67.768-7.8  65.548-7.8L 65.548-7.8Q 65.308-7.8  65.148-7.79Q 64.978-7.78  64.838-7.78Q 64.698-7.78  64.548-7.79Q 64.398-7.8  64.188-7.8L 64.188-7.8Q 64.188-6.98  64.188-6.5Q 64.188-6.02  64.198-5.72Q 64.208-5.41  64.208-5.2Q 64.208-4.99  64.208-4.71L 64.208-4.71Q 64.208-3.96  64.358-3.21Q 64.508-2.46  64.508-1.62L 64.508-1.62Q 64.508-0.98  64.228-0.55Q 63.948-0.12  63.528 0.15Q 63.108 0.42  62.618 0.55Q 62.118 0.68  61.698 0.68L 61.698 0.68Q 61.138 0.68  60.598 0.5Q 60.058 0.33  59.658-0.01Q 59.258-0.35  59.018-0.83Q 58.768-1.31  58.768-1.95ZM 64.208-12.89L 64.208-12.89Q 64.678-12.87  65.178-12.84Q 65.688-12.82  66.128-12.8Q 66.578-12.77  66.928-12.76Q 67.278-12.75  67.468-12.75L 67.468-12.75Q 70.068-12.75  71.958-13.17Q 73.838-13.59  75.128-14.32Q 76.418-15.05  77.218-16.02Q 78.008-16.99  78.438-18.13Q 78.858-19.27  78.998-20.5Q 79.138-21.73  79.138-22.95L 79.138-22.95Q 79.138-24.89  78.588-26.31Q 78.038-27.73  77.148-28.69Q 76.258-29.65  75.118-30.23Q 73.978-30.82  72.798-31.14Q 71.618-31.45  70.488-31.56Q 69.368-31.66  68.518-31.66L 68.518-31.66Q 67.438-31.66  66.348-31.63Q 65.258-31.59  64.018-31.57L 64.018-31.57Q 64.068-28.5  64.088-26.17Q 64.118-23.84  64.128-22.04Q 64.138-20.25  64.148-18.91Q 64.158-17.58  64.168-16.52Q 64.188-15.47  64.198-14.6Q 64.208-13.73  64.208-12.89ZM 93.412-1.88L 93.412-1.88Q 93.412-3.07  93.582-4.23Q 93.762-5.39  93.762-6.7L 93.762-6.7Q 93.762-12.68  93.652-18.73Q 93.552-24.77  93.552-31.15L 93.552-31.15Q 93.552-31.8  93.412-32.47Q 93.272-33.14  93.272-33.91L 93.272-33.91Q 93.272-34.52  93.432-35.06Q 93.602-35.6  93.992-36.01Q 94.392-36.42  95.102-36.66Q 95.802-36.89  96.852-36.89L 96.852-36.89Q 97.912-36.89  98.522-36.09Q 99.132-35.3  99.132-33.96L 99.132-33.96Q 99.132-33.56  99.062-33.18Q 98.992-32.79  98.922-32.37L 98.922-32.37Q 98.872-30.35  98.852-28.03Q 98.822-25.71  98.822-22.71L 98.822-22.71Q 98.822-20.04  98.852-17.25Q 98.872-14.46  98.922-11.88Q 98.962-9.3  99.052-7.07Q 99.132-4.83  99.242-3.21L 99.242-3.21L 99.242-3.23Q 99.292-2.88  99.332-2.57Q 99.362-2.25  99.362-1.92L 99.362-1.92Q 99.362-1.36  99.232-0.88Q 99.102-0.4  98.802-0.05Q 98.492 0.3  97.962 0.49Q 97.422 0.68  96.622 0.68L 96.622 0.68Q 95.682 0.68  95.062 0.52Q 94.442 0.35  94.082 0.02Q 93.712-0.3  93.562-0.79Q 93.412-1.27  93.412-1.88ZM 110.261-2.65L 110.261-2.65Q 110.261-3.05  110.371-3.49Q 110.471-3.94  110.591-4.31L 110.591-4.31L 110.801-5.06L 110.261-33.09Q 110.261-34.24  110.531-34.88Q 110.801-35.51  111.221-35.81Q 111.641-36.12  112.191-36.16Q 112.751-36.21  113.311-36.21L 113.311-36.21L 125.661-36.21Q 126.081-36.26  126.611-36.34Q 127.141-36.42  127.351-36.42L 127.351-36.42Q 128.241-36.42  128.791-36.26Q 129.341-36.09  129.661-35.78Q 129.971-35.46  130.081-34.99Q 130.181-34.52  130.181-33.89L 130.181-33.89Q 130.181-33  129.961-32.46Q 129.741-31.92  129.351-31.63Q 128.961-31.34  128.451-31.24Q 127.931-31.15  127.351-31.15L 127.351-31.15Q 127.091-31.15  126.671-31.16Q 126.251-31.17  125.781-31.22L 125.781-31.22Q 123.501-31.22  122.111-31.22Q 120.711-31.22  119.881-31.21Q 119.051-31.2  118.621-31.2Q 118.181-31.2  117.851-31.2L 117.851-31.2L 115.671-31.2L 115.671-23.77Q 115.821-23.77  116.011-23.75Q 116.211-23.74  116.641-23.74Q 117.061-23.74  117.801-23.74Q 118.531-23.74  119.781-23.74Q 121.021-23.74  122.851-23.74Q 124.671-23.74  127.281-23.74L 127.281-23.74Q 127.531-23.74  127.861-23.77Q 128.191-23.79  128.521-23.84L 128.521-23.84Q 128.941-23.88  129.501-23.93Q 130.071-23.98  130.721-23.98L 130.721-23.98Q 131.351-23.98  131.851-23.72Q 132.341-23.46  132.681-23.07Q 133.021-22.69  133.191-22.24Q 133.371-21.8  133.371-21.4L 133.371-21.4Q 133.371-20.13  132.541-19.55Q 131.711-18.96  130.391-18.96L 130.391-18.96L 115.671-18.94L 115.671-4.9Q 118.001-4.9  120.341-4.83Q 122.681-4.76  125.241-4.76L 125.241-4.76Q 125.941-4.76  126.531-4.83Q 127.111-4.9  127.651-4.99L 127.651-4.99Q 128.141-5.06  128.651-5.12Q 129.151-5.18  129.761-5.18L 129.761-5.18Q 130.461-5.18  131.061-5.07Q 131.661-4.97  132.101-4.7Q 132.551-4.43  132.811-3.97Q 133.071-3.52  133.071-2.81L 133.071-2.81Q 133.071-1.78  132.711-1.22Q 132.361-0.66  131.761-0.39Q 131.171-0.12  130.411-0.06Q 129.641 0  128.821 0L 128.821 0L 113.051 0Q 112.441 0  111.941-0.14Q 111.431-0.28  111.061-0.6Q 110.681-0.91  110.471-1.42Q 110.261-1.92  110.261-2.65ZM 141.952-2.74L 141.952-2.74Q 141.952-3.82  142.042-4.85Q 142.132-5.88  142.132-7.27L 142.132-7.27Q 142.132-13.5  142.102-19.76Q 142.062-26.02  141.882-32.41L 141.882-32.41Q 141.622-32.91  141.422-33.49Q 141.222-34.08  141.222-34.5L 141.222-34.5Q 141.222-35.51  141.772-36.2Q 142.322-36.89  143.662-36.89L 143.662-36.89Q 144.342-36.89  144.992-36.71Q 145.652-36.54  146.402-36.54L 146.402-36.54Q 148.042-36.54  149.662-36.71Q 151.282-36.89  152.962-36.89L 152.962-36.89Q 156.412-36.89  159.142-36.22Q 161.872-35.55  163.932-34.37Q 165.992-33.19  167.452-31.56Q 168.902-29.93  169.802-28Q 170.712-26.06  171.132-23.89Q 171.552-21.73  171.552-19.5L 171.552-19.5Q 171.552-17.51  171.142-15.25Q 170.732-12.98  169.792-10.77Q 168.852-8.55  167.352-6.53Q 165.852-4.5  163.652-2.95Q 161.452-1.41  158.512-0.48Q 155.562 0.45  151.772 0.45L 151.772 0.45Q 150.882 0.45  150.002 0.36Q 149.122 0.28  148.232 0.18Q 147.342 0.07  146.442-0.01Q 145.532-0.09  144.602-0.09L 144.602-0.09Q 143.172-0.09  142.562-0.75Q 141.952-1.41  141.952-2.74ZM 147.032-31.45L 147.172-5.16Q 147.672-5.02  148.362-4.93Q 149.052-4.85  149.752-4.8Q 150.462-4.76  151.082-4.75Q 151.702-4.73  152.052-4.73L 152.052-4.73Q 154.962-4.73  157.132-5.46Q 159.312-6.19  160.872-7.36Q 162.432-8.53  163.462-10.01Q 164.492-11.48  165.092-12.98Q 165.692-14.48  165.922-15.87Q 166.162-17.25  166.162-18.23L 166.162-18.23Q 166.162-22.13  165.232-24.71Q 164.312-27.3  162.512-28.85Q 160.722-30.4  158.112-31.03Q 155.492-31.66  152.102-31.66L 152.102-31.66Q 151.652-31.66  151.012-31.64Q 150.362-31.62  149.662-31.59Q 148.962-31.57  148.262-31.52Q 147.572-31.48  147.032-31.45L 147.032-31.45Z"></path></svg>